<?xml version="1.0" encoding="UTF-8" standalone="no"?>
<!-- Created with Inkscape (http://www.inkscape.org/) -->

<svg
   xmlns:dc="http://purl.org/dc/elements/1.1/"
   xmlns:cc="http://creativecommons.org/ns#"
   xmlns:rdf="http://www.w3.org/1999/02/22-rdf-syntax-ns#"
   xmlns:svg="http://www.w3.org/2000/svg"
   xmlns="http://www.w3.org/2000/svg"
   xmlns:xlink="http://www.w3.org/1999/xlink"
   xmlns:sodipodi="http://sodipodi.sourceforge.net/DTD/sodipodi-0.dtd"
   xmlns:inkscape="http://www.inkscape.org/namespaces/inkscape"
   width="960"
   height="600"
   viewBox="0 0 253.99999 158.75"
   version="1.1"
   id="svg10310"
   sodipodi:docname="game-state-background.svg"
   inkscape:version="0.92.4 (5da689c313, 2019-01-14)">
  <defs
     id="defs10304">
    <linearGradient
       inkscape:collect="always"
       xlink:href="#id0"
       id="linearGradient10976"
       gradientUnits="userSpaceOnUse"
       x1="29675.883"
       y1="29632.828"
       x2="29675.883"
       y2="29125.064"
       gradientTransform="scale(0.83566213,1.1966559)" />
    <linearGradient
       id="id0"
       gradientUnits="objectBoundingBox"
       x1="0.50001997"
       y1="0.88998598"
       x2="0.50001997"
       y2="0.109987">
      <stop
         offset="0"
         style="stop-color:#FFCC00"
         id="stop9" />
      <stop
         offset="1"
         style="stop-color:#FFF71F"
         id="stop11" />
    </linearGradient>
  </defs>
  <sodipodi:namedview
     id="base"
     pagecolor="#ffffff"
     bordercolor="#666666"
     borderopacity="1.0"
     inkscape:pageopacity="0.0"
     inkscape:pageshadow="2"
     inkscape:zoom="0.98994949"
     inkscape:cx="513.38966"
     inkscape:cy="347.75729"
     inkscape:document-units="mm"
     inkscape:current-layer="layer1"
     showgrid="false"
     units="px"
     inkscape:window-width="1878"
     inkscape:window-height="1016"
     inkscape:window-x="42"
     inkscape:window-y="27"
     inkscape:window-maximized="1" />
  <metadata
     id="metadata10307">
    <rdf:RDF>
      <cc:Work
         rdf:about="">
        <dc:format>image/svg+xml</dc:format>
        <dc:type
           rdf:resource="http://purl.org/dc/dcmitype/StillImage" />
        <dc:title></dc:title>
      </cc:Work>
    </rdf:RDF>
  </metadata>
  <g
     inkscape:label="Layer 1"
     inkscape:groupmode="layer"
     id="layer1"
     transform="translate(0,-138.24998)">
    <g
       transform="matrix(0.1006672,0,0,0.03896198,-3093.5648,-1245.4767)"
       style="clip-rule:evenodd;fill-rule:evenodd;image-rendering:optimizeQuality;shape-rendering:geometricPrecision;text-rendering:geometricPrecision"
       id="g7457">
      <path
         style="fill:#000000;fill-opacity:0.10196102"
         inkscape:connector-curvature="0"
         id="path7459"
         d="m 30889,35294 h 2285 c 48,0 88,45 88,101 v 594 c 0,56 -40,101 -88,101 h -2285 c -48,0 -88,-45 -88,-101 v -594 c 0,-56 40,-101 88,-101 z"
         class="fil1" />
      <path
         style="fill:#e6e6e6"
         inkscape:connector-curvature="0"
         id="path7461"
         d="m 30865,35262 h 2285 c 48,0 88,46 88,101 v 595 c 0,55 -40,100 -88,100 h -2285 c -48,0 -88,-45 -88,-100 v -595 c 0,-55 39,-101 88,-101 z"
         class="fil2" />
      <path
         style="fill:#ffffff"
         inkscape:connector-curvature="0"
         id="path7463"
         d="m 30865,35241 h 2285 c 48,0 88,46 88,101 v 595 c 0,55 -40,100 -88,100 h -2285 c -48,0 -88,-45 -88,-100 v -595 c 0,-55 39,-101 88,-101 z"
         class="fil3" />
      <path
         style="fill:#e6e6e6"
         inkscape:connector-curvature="0"
         id="path7465"
         d="m 30919,35309 h 2188 c 45,0 82,42 82,94 v 480 c 0,52 -37,95 -82,95 h -2188 c -45,0 -82,-43 -82,-95 v -480 c 0,-52 37,-94 82,-94 z"
         class="fil2" />
      <path
         style="fill:#f1c383"
         inkscape:connector-curvature="0"
         id="path7467"
         d="m 30901,35296 h 2190 c 45,0 81,43 81,94 v 467 c 0,52 -36,95 -81,95 h -2190 c -45,0 -82,-43 -82,-95 v -467 c 0,-51 36,-94 82,-94 z"
         class="fil4" />
      <path
         style="fill:#faeecc"
         inkscape:connector-curvature="0"
         id="path7469"
         d="m 30899,35272 h 2174 c 45,0 81,41 81,92 v 439 c 0,51 -36,93 -81,93 h -2174 c -44,0 -80,-42 -80,-93 v -439 c 0,-51 36,-92 80,-92 z"
         class="fil5" />
      <g
         id="g7471">
        <path
           style="fill:#faedc9"
           inkscape:connector-curvature="0"
           id="path7473"
           d="m 30912,35284 c 716,0 1432,0 2148,0 44,0 80,41 80,92 0,138 0,277 0,416 0,50 -36,92 -80,92 -716,0 -1432,0 -2148,0 -43,0 -79,-42 -79,-92 0,-139 0,-278 0,-416 0,-51 35,-92 79,-92 z"
           class="fil6" />
        <path
           style="fill:#f9ecc6"
           inkscape:connector-curvature="0"
           id="path7475"
           d="m 30925,35296 c 708,0 1415,0 2122,0 44,0 79,41 79,91 0,131 0,262 0,394 0,49 -35,90 -79,90 -707,0 -1414,0 -2122,0 -43,0 -78,-41 -78,-90 0,-132 0,-263 0,-394 0,-50 35,-91 78,-91 z"
           class="fil7" />
        <path
           style="fill:#f9ebc2"
           inkscape:connector-curvature="0"
           id="path7477"
           d="m 30938,35309 c 699,0 1398,0 2096,0 43,0 78,40 78,89 0,124 0,248 0,371 0,50 -35,90 -78,90 -698,0 -1397,0 -2096,0 -42,0 -77,-40 -77,-90 0,-123 0,-247 0,-371 0,-49 35,-89 77,-89 z"
           class="fil8" />
        <path
           style="fill:#f8eabf"
           inkscape:connector-curvature="0"
           id="path7479"
           d="m 30951,35321 c 690,0 1380,0 2070,0 42,0 77,40 77,88 0,117 0,233 0,349 0,49 -35,88 -77,88 -690,0 -1380,0 -2070,0 -42,0 -76,-39 -76,-88 0,-116 0,-232 0,-349 0,-48 34,-88 76,-88 z"
           class="fil9" />
        <path
           style="fill:#f8e9bc"
           inkscape:connector-curvature="0"
           id="path7481"
           d="m 30964,35333 c 682,0 1363,0 2044,0 42,0 76,40 76,87 0,109 0,218 0,327 0,48 -34,87 -76,87 -681,0 -1362,0 -2044,0 -41,0 -75,-39 -75,-87 0,-109 0,-218 0,-327 0,-48 34,-87 75,-87 z"
           class="fil10" />
        <path
           style="fill:#f7e8b9"
           inkscape:connector-curvature="0"
           id="path7483"
           d="m 30977,35346 c 673,0 1346,0 2018,0 41,0 75,38 75,86 0,101 0,202 0,304 0,47 -34,86 -75,86 -672,0 -1345,0 -2018,0 -41,0 -74,-39 -74,-86 0,-102 0,-203 0,-304 0,-48 33,-86 74,-86 z"
           class="fil11" />
        <path
           style="fill:#f7e7b6"
           inkscape:connector-curvature="0"
           id="path7485"
           d="m 30991,35358 c 663,0 1327,0 1991,0 41,0 74,38 74,85 0,94 0,188 0,282 0,46 -33,84 -74,84 -664,0 -1328,0 -1991,0 -41,0 -74,-38 -74,-84 0,-94 0,-188 0,-282 0,-47 33,-85 74,-85 z"
           class="fil12" />
        <path
           style="fill:#f6e6b3"
           inkscape:connector-curvature="0"
           id="path7487"
           d="m 31004,35370 c 655,0 1310,0 1965,0 40,0 73,38 73,84 0,86 0,173 0,259 0,46 -33,84 -73,84 -655,0 -1310,0 -1965,0 -40,0 -73,-38 -73,-84 0,-86 0,-173 0,-259 0,-46 32,-84 73,-84 z"
           class="fil13" />
        <path
           style="fill:#f6e5af"
           inkscape:connector-curvature="0"
           id="path7489"
           d="m 31017,35383 c 646,0 1293,0 1939,0 40,0 72,37 72,82 0,79 0,158 0,237 0,45 -32,83 -72,83 -646,0 -1293,0 -1939,0 -40,0 -72,-37 -72,-83 0,-79 0,-158 0,-237 0,-45 32,-82 72,-82 z"
           class="fil14" />
        <path
           style="fill:#f5e4ac"
           inkscape:connector-curvature="0"
           id="path7491"
           d="m 31030,35395 c 637,0 1275,0 1913,0 39,0 71,37 71,82 0,71 0,142 0,214 0,45 -32,81 -71,81 -638,0 -1276,0 -1913,0 -39,0 -71,-36 -71,-81 0,-72 0,-143 0,-214 0,-45 32,-82 71,-82 z"
           class="fil15" />
      </g>
      <path
         style="fill:#f5e3a9"
         inkscape:connector-curvature="0"
         id="path7493"
         d="m 31043,35407 h 1887 c 38,0 70,37 70,81 v 192 c 0,44 -32,80 -70,80 h -1887 c -39,0 -70,-36 -70,-80 v -192 c 0,-44 31,-81 70,-81 z"
         class="fil16" />
    </g>
    <g
       transform="matrix(0.01562486,0,0,0.01562486,-378.92658,-445.30083)"
       style="clip-rule:evenodd;fill-rule:evenodd;image-rendering:optimizeQuality;shape-rendering:geometricPrecision;text-rendering:geometricPrecision"
       id="g3947">
      <path
         style="fill:#000000;fill-opacity:0.10196102;fill-rule:nonzero"
         inkscape:connector-curvature="0"
         id="path3949"
         d="m 25308,37399 h 234 c 26,0 49,11 66,28 17,17 28,40 28,66 v 133 h 133 c 26,0 49,10 66,27 17,17 28,41 28,67 v 233 c 0,26 -11,50 -28,67 -17,17 -40,27 -66,27 h -133 v 133 c 0,26 -11,49 -28,66 -17,17 -40,28 -66,28 h -234 c -25,0 -49,-11 -66,-28 -17,-17 -27,-40 -27,-66 v -133 h -133 c -26,0 -50,-10 -67,-27 -17,-17 -27,-41 -27,-67 v -233 c 0,-26 10,-50 27,-67 17,-17 41,-27 67,-27 h 133 v -133 c 0,-26 10,-49 27,-66 17,-17 41,-28 66,-28 z m 209,120 h -183 v 167 59 h -60 -167 v 183 h 167 60 v 60 166 h 183 v -166 -60 h 59 167 v -183 h -167 -59 v -59 z"
         class="fil82" />
      <path
         style="fill:#e6e6e6;fill-rule:nonzero"
         inkscape:connector-curvature="0"
         id="path3951"
         d="m 25308,37359 h 234 c 26,0 49,11 66,28 17,17 28,40 28,66 v 133 h 133 c 26,0 49,10 66,27 17,17 28,41 28,67 v 233 c 0,26 -11,50 -28,67 -17,17 -40,27 -66,27 h -133 v 133 c 0,26 -11,49 -28,66 -17,17 -40,28 -66,28 h -234 c -25,0 -49,-11 -66,-28 -17,-17 -27,-40 -27,-66 v -133 h -133 c -26,0 -50,-10 -67,-27 -17,-17 -27,-41 -27,-67 v -233 c 0,-26 10,-50 27,-67 17,-17 41,-27 67,-27 h 133 v -133 c 0,-26 10,-49 27,-66 17,-17 41,-28 66,-28 z m 209,120 h -183 v 167 59 h -60 -167 v 183 h 167 60 v 60 167 h 183 v -167 -60 h 59 167 v -183 h -167 -59 v -59 z"
         class="fil88" />
      <path
         style="fill:#ffffff;fill-rule:nonzero"
         inkscape:connector-curvature="0"
         id="path3953"
         d="m 25308,37359 h 234 c 26,0 49,11 66,28 17,16 28,39 28,65 v 1 97 36 h 133 c 26,0 49,10 66,27 17,17 27,40 28,65 v 2 199 c -1,25 -11,48 -28,65 -17,17 -40,28 -66,28 h -133 v 35 99 c 0,25 -11,48 -28,65 -17,17 -40,27 -66,27 h -234 c -25,0 -49,-10 -66,-27 -17,-17 -27,-40 -27,-65 v -99 -35 h -133 c -26,0 -50,-11 -67,-28 -16,-17 -27,-40 -27,-65 v -199 -2 c 0,-25 11,-48 27,-65 17,-17 41,-27 67,-27 h 133 v -36 -97 -1 c 0,-26 10,-49 27,-65 17,-17 41,-28 66,-28 z m 209,84 h -183 v 36 167 24 h -60 -167 v 35 147 36 h 167 60 v 60 131 36 h 183 v -36 -131 -60 h 59 167 v -36 -147 -35 h -167 -59 v -24 -167 z"
         class="fil54" />
      <path
         style="fill:#be005b"
         inkscape:connector-curvature="0"
         id="path3955"
         d="m 25308,37404 h 234 c 19,0 34,15 34,34 v 192 h 193 c 19,0 34,16 34,35 v 233 c 0,19 -15,34 -34,34 h -193 v 193 c 0,19 -15,34 -34,34 h -234 c -18,0 -34,-15 -34,-34 v -193 h -192 c -19,0 -34,-15 -34,-34 v -233 c 0,-19 15,-35 34,-35 h 192 v -192 c 0,-19 16,-34 34,-34 z"
         class="fil89" />
      <path
         style="fill:#ff5dab"
         inkscape:connector-curvature="0"
         id="path3957"
         d="m 25308,37404 h 234 c 19,0 34,15 34,34 v 144 48 h 193 c 19,0 34,16 34,35 v 185 c 0,18 -15,34 -34,34 h -193 v 48 144 c 0,19 -15,34 -34,34 h -234 c -18,0 -34,-15 -34,-34 v -144 -48 h -192 c -19,0 -34,-16 -34,-34 v -185 c 0,-19 15,-35 34,-35 h 192 v -48 -144 c 0,-19 16,-34 34,-34 z"
         class="fil90" />
      <path
         style="fill:#ff208f"
         inkscape:connector-curvature="0"
         id="path3959"
         d="m 25308,37404 h 234 c 19,0 34,15 34,34 v 144 37 11 h 193 c 19,0 34,16 34,35 v 173 c 0,19 -15,35 -34,35 h -193 v 11 48 133 c 0,19 -15,34 -34,34 h -234 c -18,0 -34,-15 -34,-34 v -133 -48 -11 h -192 c -19,0 -34,-16 -34,-35 v -173 c 0,-19 15,-35 34,-35 h 192 v -11 -37 -144 c 0,-19 16,-34 34,-34 z"
         class="fil91" />
      <path
         style="fill:#fe007a"
         inkscape:connector-curvature="0"
         id="path3961"
         d="m 25803,37687 v 151 c 0,19 -15,35 -34,35 h -193 v 11 48 133 c 0,19 -15,34 -34,34 h -234 c -18,0 -34,-15 -34,-34 v -73 c 20,-9 40,-18 60,-27 46,-21 95,-45 144,-71 101,-54 191,-110 265,-162 22,-16 42,-30 60,-45 z"
         class="fil92" />
      <path
         style="fill:#ff3d9a"
         inkscape:connector-curvature="0"
         id="path3963"
         d="m 25048,37838 c 0,34 0,49 0,0 v -173 c 0,-19 15,-35 34,-35 h 192 v -192 c 0,-19 16,-34 34,-34 h 234 c 19,0 34,15 34,34 v 145 c -19,9 -39,17 -59,27 -49,22 -99,47 -151,74 -11,6 -21,12 -32,18 -2,1 -5,2 -7,3 -82,46 -157,92 -220,137 -13,9 -26,19 -39,28 -12,-5 -20,-18 -20,-32 z"
         class="fil93" />
    </g>
    <g
       transform="matrix(0.01562486,0,0,0.01562486,-288.35635,-404.09807)"
       style="clip-rule:evenodd;fill-rule:evenodd;image-rendering:optimizeQuality;shape-rendering:geometricPrecision;text-rendering:geometricPrecision"
       id="g7229">
      <path
         style="fill:#000000;fill-opacity:0.10196102;fill-rule:nonzero"
         inkscape:connector-curvature="0"
         id="path7231"
         d="m 25034,35098 -49,8 c 28,13 51,27 68,42 l 1,1 c 27,24 47,52 61,83 v 0 c 13,31 20,65 20,101 0,21 -2,42 -7,62 -5,20 -12,40 -22,58 v 0 c -10,17 -20,33 -32,47 -12,15 -25,28 -39,40 -15,12 -30,22 -45,30 -15,8 -31,15 -48,21 v 0 c -9,3 -20,6 -30,8 v 3 c 0,28 -12,53 -30,70 -17,18 -42,30 -70,30 h -30 c -27,0 -52,-12 -70,-30 -18,-17 -29,-42 -29,-70 v -5 c -17,-4 -33,-8 -48,-14 -17,-6 -33,-14 -48,-23 -15,-9 -30,-20 -43,-32 v 0 c -13,-12 -24,-24 -33,-36 v 0 c -10,-13 -19,-26 -26,-40 v 0 c -4,-8 -8,-17 -11,-25 v -1 c -4,-10 -6,-16 -8,-22 v 0 c -7,-21 -11,-42 -3,-66 v 0 c 10,-28 31,-49 71,-56 l 4,-1 60,-7 c -14,-8 -27,-18 -40,-29 -14,-13 -28,-28 -40,-46 -13,-19 -23,-41 -29,-64 -7,-22 -10,-46 -10,-71 0,-34 7,-67 19,-97 13,-30 32,-58 57,-81 23,-23 50,-40 83,-53 16,-6 34,-12 54,-16 5,-10 12,-20 20,-29 18,-17 43,-29 70,-29 h 30 c 28,0 53,12 70,29 9,9 16,19 21,30 15,3 29,7 43,11 29,10 54,23 76,40 18,14 34,30 47,48 13,18 24,37 32,58 3,6 5,13 6,19 v 1 c 4,18 3,37 -6,54 v 0 c -8,19 -23,34 -45,43 v 0 c -6,2 -12,4 -19,6 z"
         class="fil82" />
      <path
         style="fill:#e6e6e6;fill-rule:nonzero"
         inkscape:connector-curvature="0"
         id="path7233"
         d="m 25034,35061 -49,8 c 28,13 51,27 68,42 l 1,1 c 27,24 47,52 61,83 v 0 c 13,31 20,65 20,101 0,21 -2,42 -7,62 -5,20 -12,40 -22,58 v 0 c -10,17 -20,33 -32,47 -12,15 -25,28 -39,40 -15,12 -30,22 -45,30 -15,8 -31,15 -48,21 v 0 c -9,3 -20,6 -30,8 v 3 c 0,28 -12,52 -30,70 -17,18 -42,30 -70,30 h -30 c -27,0 -52,-12 -70,-30 -18,-18 -29,-42 -29,-70 v -5 c -17,-4 -33,-8 -48,-14 -17,-7 -33,-14 -48,-23 -15,-9 -30,-20 -43,-32 v 0 c -13,-12 -24,-24 -33,-36 v 0 c -10,-13 -19,-26 -26,-41 v 0 c -4,-7 -8,-16 -11,-24 v -1 c -4,-10 -6,-16 -8,-22 v 0 c -7,-21 -11,-42 -3,-66 v 0 c 10,-28 31,-49 71,-56 l 4,-1 60,-7 c -14,-8 -27,-18 -40,-29 -14,-13 -28,-28 -40,-46 -13,-19 -23,-41 -29,-64 -7,-22 -10,-46 -10,-71 0,-34 7,-67 19,-97 13,-30 32,-58 57,-81 23,-23 50,-40 83,-53 16,-6 34,-12 54,-16 5,-10 12,-20 20,-29 18,-18 43,-29 70,-29 h 30 c 28,0 53,11 70,29 9,9 16,19 21,30 15,3 29,6 43,11 29,10 54,23 76,40 18,14 34,30 47,48 13,18 24,37 32,58 3,6 5,13 6,19 v 1 c 4,18 3,37 -6,54 v 0 c -8,19 -23,34 -45,43 v 0 c -6,2 -12,4 -19,6 z"
         class="fil88" />
      <path
         style="fill:#ffffff;fill-rule:nonzero"
         inkscape:connector-curvature="0"
         id="path7235"
         d="m 24985,35069 c 89,42 145,113 150,213 -4,76 -42,146 -100,193 -38,30 -77,49 -123,59 v 4 c 0,27 -12,52 -30,70 -40,40 -130,40 -170,0 -18,-18 -29,-43 -29,-70 v -6 c -34,-7 -67,-19 -96,-37 -60,-36 -117,-109 -127,-180 11,-71 80,-71 138,-78 44,-3 -29,-47 -40,-56 -32,-30 -57,-68 -69,-110 -5,-18 -8,-37 -9,-57 1,-30 7,-58 18,-84 13,-30 32,-58 57,-81 23,-23 50,-40 83,-53 16,-6 34,-12 54,-16 5,-10 12,-20 20,-29 18,-18 43,-29 70,-29 h 30 c 28,0 53,11 70,29 9,9 16,19 21,30 15,3 29,6 43,11 29,10 54,23 76,40 18,14 34,30 47,48 13,18 24,37 32,58 3,6 5,13 6,19 v 1 l 1,5 c -10,65 -68,70 -123,78 -25,5 -30,11 0,28 z"
         class="fil54" />
      <path
         style="fill:#dcb000;fill-rule:nonzero"
         inkscape:connector-curvature="0"
         id="path7237"
         d="m 25025,34986 -116,18 c -25,5 -30,-12 -33,-19 -5,-9 -9,-16 -13,-21 -4,-4 -8,-9 -15,-13 v 123 c 81,23 135,47 164,72 40,36 60,82 60,137 0,33 -7,63 -22,90 -14,27 -33,50 -55,68 -23,18 -47,32 -72,40 -21,7 -46,11 -75,13 v 58 c 0,20 -16,36 -36,36 h -30 c -20,0 -36,-16 -36,-36 v -59 c -36,-4 -65,-10 -88,-19 -28,-10 -51,-24 -71,-42 -20,-19 -35,-38 -46,-59 -6,-12 -11,-25 -16,-39 -6,-19 -7,-36 20,-40 l 113,-13 c 30,-7 46,0 46,22 0,12 6,24 15,37 7,8 15,16 27,24 v -153 c -51,-15 -88,-28 -110,-39 -25,-12 -47,-32 -66,-59 -18,-27 -28,-60 -28,-98 0,-54 19,-98 56,-134 34,-33 84,-52 148,-58 v -14 c 0,-20 16,-36 36,-36 h 30 c 20,0 36,16 36,36 v 14 c 58,6 103,21 135,46 27,21 47,47 60,80 7,17 4,33 -18,37 z m -177,256 v 131 c 16,-5 29,-13 37,-22 12,-13 18,-28 18,-44 0,-14 -5,-27 -15,-39 -7,-9 -21,-18 -40,-26 z m -102,-198 v -99 c -10,4 -17,10 -22,16 -7,9 -11,20 -11,32 0,13 4,25 12,34 4,7 12,12 21,17 z"
         class="fil94" />
      <path
         style="fill:#fef500;fill-rule:nonzero"
         inkscape:connector-curvature="0"
         id="path7239"
         d="m 24848,34951 v 87 36 c 81,23 135,47 164,72 35,32 55,72 59,119 -2,26 -9,49 -21,71 -14,28 -33,50 -55,69 -23,18 -47,31 -72,39 -21,7 -46,12 -75,14 v 36 22 c 0,20 -16,36 -36,36 h -30 c -20,0 -36,-16 -36,-36 v -23 -36 c -36,-4 -65,-10 -88,-19 -28,-10 -51,-25 -71,-43 -20,-18 -35,-38 -46,-59 -5,-10 -10,-22 -14,-34 4,-4 10,-7 18,-8 l 113,-13 c 30,-7 46,0 46,22 0,12 6,24 15,37 7,8 15,16 27,24 v -37 -116 -37 c -51,-14 -88,-27 -110,-38 -25,-12 -47,-32 -66,-59 -15,-23 -24,-50 -27,-80 4,-46 22,-84 55,-116 34,-33 84,-52 148,-58 v -14 c 0,-20 16,-36 36,-36 h 30 c 20,0 36,16 36,36 v 14 c 58,6 103,21 135,46 25,19 44,44 57,73 -3,4 -8,6 -15,8 l -116,18 c -25,4 -30,-13 -33,-19 -5,-9 -9,-16 -13,-21 -4,-5 -8,-9 -15,-13 z m 0,255 v 36 95 36 c 16,-5 29,-13 37,-22 12,-13 18,-28 18,-44 0,-6 -1,-12 -3,-18 2,-6 3,-12 3,-19 0,-14 -5,-27 -15,-39 -7,-9 -21,-17 -40,-25 z m -102,-261 v -37 c -10,5 -17,10 -22,16 -7,9 -11,20 -11,33 0,6 1,13 3,18 -2,6 -3,12 -3,18 0,13 4,25 12,34 4,7 12,12 21,17 v -36 z"
         class="fil95" />
      <path
         inkscape:connector-curvature="0"
         style="fill:url(#linearGradient10976)"
         id="path7241"
         d="m 24848,34945 v 87 36 c 81,23 135,47 164,72 35,32 55,72 59,119 -2,26 -9,50 -21,72 -14,27 -33,50 -55,68 -23,18 -47,31 -72,39 -21,7 -46,12 -75,14 v 36 22 c 0,20 -16,36 -36,36 h -30 c -20,0 -36,-16 -36,-36 v -22 -37 c -36,-4 -65,-10 -88,-19 -28,-10 -51,-25 -71,-43 -20,-18 -35,-37 -46,-58 -5,-11 -10,-23 -14,-35 4,-4 10,-7 18,-8 l 113,-13 c 30,-7 46,0 46,22 0,12 6,24 15,37 7,8 15,17 27,24 v -36 -117 -37 c -51,-14 -88,-27 -110,-38 -25,-12 -47,-32 -66,-59 -15,-23 -24,-49 -27,-80 4,-46 22,-84 55,-116 34,-32 84,-52 148,-58 v -14 c 0,-20 16,-36 36,-36 h 30 c 20,0 36,16 36,36 v 14 c 58,6 103,21 135,46 25,20 44,44 57,74 -3,3 -8,5 -15,7 l -116,18 c -25,4 -30,-13 -33,-19 -5,-9 -9,-16 -13,-21 -4,-4 -8,-9 -15,-13 z m 0,255 v 36 95 37 c 16,-6 29,-14 37,-23 12,-13 18,-28 18,-44 0,-6 -1,-12 -3,-18 2,-6 3,-12 3,-18 0,-15 -5,-28 -15,-39 -7,-10 -21,-18 -40,-26 z m -102,-261 v -37 c -10,5 -17,10 -22,16 -7,9 -11,20 -11,33 0,7 1,13 3,18 -2,6 -3,12 -3,18 0,13 4,25 12,35 4,6 12,11 21,16 v -36 z"
         class="fil96" />
      <path
         style="fill:#f7c600;fill-rule:nonzero"
         inkscape:connector-curvature="0"
         id="path7243"
         d="m 25070,35250 c 1,3 1,6 1,9 -2,26 -9,50 -21,72 -14,27 -33,50 -55,68 -23,18 -47,31 -72,39 -21,7 -46,12 -75,14 v 36 22 c 0,20 -16,36 -36,36 h -30 c -20,0 -36,-16 -36,-36 v -22 -37 c -36,-4 -65,-10 -88,-19 -28,-10 -51,-25 -71,-43 -20,-18 -35,-37 -46,-58 -3,-6 -5,-11 -7,-17 52,4 111,4 173,0 3,6 7,13 12,20 7,8 15,17 27,24 v -36 -11 c 21,-2 42,-4 63,-7 13,-2 26,-3 39,-5 v 32 37 c 16,-6 29,-14 37,-23 12,-13 18,-28 18,-44 0,-4 0,-8 -1,-11 60,-11 117,-25 168,-40 z"
         class="fil97" />
      <path
         style="fill:#fff71f;fill-rule:nonzero"
         inkscape:connector-curvature="0"
         id="path7245"
         d="m 24848,34945 v 18 c -13,2 -26,3 -39,5 -21,3 -42,6 -63,9 v -38 -37 c -10,5 -17,10 -22,16 -7,9 -11,20 -11,33 0,7 1,13 3,18 -1,5 -2,9 -3,14 -59,10 -114,24 -165,39 -2,-10 -4,-20 -5,-31 4,-46 22,-84 55,-116 34,-32 84,-52 148,-58 v -14 c 0,-20 16,-36 36,-36 h 30 c 20,0 36,16 36,36 v 14 c 58,6 103,21 135,46 25,20 44,44 57,74 -3,3 -8,5 -15,7 l -82,13 c -18,0 -36,1 -54,3 -9,-5 -11,-13 -13,-17 -5,-9 -9,-16 -13,-21 -4,-4 -8,-9 -15,-13 z"
         class="fil98" />
    </g>
    <g
       id="g13707"
       transform="matrix(0.26458333,0,0,0.26458333,168.27784,136.29491)">
      <g
         id="Layer_1">
	<g
   id="g12633">
		
	</g>

	<g
   id="g12671">
		<g
   class="st1"
   id="g12637"
   style="opacity:0.2">
			<path
   class="st2"
   d="m 12,25 v 25 c 0,2.2 1.8,4 4,4 h 32 c 2.2,0 4,-1.8 4,-4 V 25 Z"
   id="path12635"
   inkscape:connector-curvature="0"
   style="fill:#231f20" />

		</g>

		<g
   id="g12641">
			<path
   class="st3"
   d="m 12,23 v 25 c 0,2.2 1.8,4 4,4 h 32 c 2.2,0 4,-1.8 4,-4 V 23 Z"
   id="path12639"
   inkscape:connector-curvature="0"
   style="fill:#ffffff" />

		</g>

		<g
   class="st1"
   id="g12645"
   style="opacity:0.2">
			<path
   class="st2"
   d="M 48,14 H 16 c -2.2,0 -4,1.8 -4,4 v 7 h 40 v -7 c 0,-2.2 -1.8,-4 -4,-4 z"
   id="path12643"
   inkscape:connector-curvature="0"
   style="fill:#231f20" />

		</g>

		<g
   id="g12649">
			<path
   class="st4"
   d="M 48,12 H 16 c -2.2,0 -4,1.8 -4,4 v 7 h 40 v -7 c 0,-2.2 -1.8,-4 -4,-4 z"
   id="path12647"
   inkscape:connector-curvature="0"
   style="fill:#c75c5c" />

		</g>

		<g
   id="g12653">
			<path
   class="st5"
   d="m 32,48 c -1.1,0 -2,-0.9 -2,-2 0,-5.5 1.8,-9.5 3.5,-12 H 27 c -1.1,0 -2,-0.9 -2,-2 0,-1.1 0.9,-2 2,-2 h 11 c 0.9,0 1.6,0.6 1.9,1.4 0.3,0.8 0,1.7 -0.7,2.2 C 39,33.8 34,37.5 34,46 c 0,1.1 -0.9,2 -2,2 z"
   id="path12651"
   inkscape:connector-curvature="0"
   style="fill:#4f5d73" />

		</g>

		<g
   class="st1"
   id="g12657"
   style="opacity:0.2">
			<path
   class="st2"
   d="m 20,21 c -1.1,0 -2,-0.9 -2,-2 v -7 c 0,-1.1 0.9,-2 2,-2 v 0 c 1.1,0 2,0.9 2,2 v 7 c 0,1.1 -0.9,2 -2,2 z"
   id="path12655"
   inkscape:connector-curvature="0"
   style="fill:#231f20" />

		</g>

		<g
   class="st1"
   id="g12661"
   style="opacity:0.2">
			<path
   class="st2"
   d="m 45,21 c -1.1,0 -2,-0.9 -2,-2 v -7 c 0,-1.1 0.9,-2 2,-2 v 0 c 1.1,0 2,0.9 2,2 v 7 c 0,1.1 -0.9,2 -2,2 z"
   id="path12659"
   inkscape:connector-curvature="0"
   style="fill:#231f20" />

		</g>

		<g
   id="g12665">
			<path
   class="st6"
   d="m 20,19 c -1.1,0 -2,-0.9 -2,-2 v -7 c 0,-1.1 0.9,-2 2,-2 v 0 c 1.1,0 2,0.9 2,2 v 7 c 0,1.1 -0.9,2 -2,2 z"
   id="path12663"
   inkscape:connector-curvature="0"
   style="fill:#e0e0d1" />

		</g>

		<g
   id="g12669">
			<path
   class="st6"
   d="m 45,19 c -1.1,0 -2,-0.9 -2,-2 v -7 c 0,-1.1 0.9,-2 2,-2 v 0 c 1.1,0 2,0.9 2,2 v 7 c 0,1.1 -0.9,2 -2,2 z"
   id="path12667"
   inkscape:connector-curvature="0"
   style="fill:#e0e0d1" />

		</g>

	</g>

</g>
      <g
         id="Layer_2">
</g>
    </g>
  </g>
  <style
     id="style12629"
     type="text/css">
	.st0{fill:#77B3D4;}
	.st1{opacity:0.2;}
	.st2{fill:#231F20;}
	.st3{fill:#FFFFFF;}
	.st4{fill:#C75C5C;}
	.st5{fill:#4F5D73;}
	.st6{fill:#E0E0D1;}
</style>
</svg>
