<?xml version="1.0" encoding="UTF-8" standalone="no"?>
<svg
   xmlns:dc="http://purl.org/dc/elements/1.1/"
   xmlns:cc="http://creativecommons.org/ns#"
   xmlns:rdf="http://www.w3.org/1999/02/22-rdf-syntax-ns#"
   xmlns:svg="http://www.w3.org/2000/svg"
   xmlns="http://www.w3.org/2000/svg"
   xmlns:sodipodi="http://sodipodi.sourceforge.net/DTD/sodipodi-0.dtd"
   xmlns:inkscape="http://www.inkscape.org/namespaces/inkscape"
   viewBox="0 0 512 512"
   version="1.1"
   id="svg3965"
   sodipodi:docname="Mask.svg"
   width="135.46666mm"
   height="135.46666mm"
   inkscape:version="0.92.4 (5da689c313, 2019-01-14)">
  <metadata
     id="metadata3971">
    <rdf:RDF>
      <cc:Work
         rdf:about="">
        <dc:format>image/svg+xml</dc:format>
        <dc:type
           rdf:resource="http://purl.org/dc/dcmitype/StillImage" />
        <dc:title></dc:title>
      </cc:Work>
    </rdf:RDF>
  </metadata>
  <defs
     id="defs3969" />
  <sodipodi:namedview
     pagecolor="#ffffff"
     bordercolor="#666666"
     borderopacity="1"
     objecttolerance="10"
     gridtolerance="10"
     guidetolerance="10"
     inkscape:pageopacity="0"
     inkscape:pageshadow="2"
     inkscape:window-width="1920"
     inkscape:window-height="1017"
     id="namedview3967"
     showgrid="false"
     units="mm"
     inkscape:zoom="0.4609375"
     inkscape:cx="256"
     inkscape:cy="256"
     inkscape:window-x="-8"
     inkscape:window-y="-8"
     inkscape:window-maximized="1"
     inkscape:current-layer="svg3965" />
  <path
     d="M 11,11 H 501 V 501 H 11 Z"
     id="path3959"
     inkscape:connector-curvature="0"
     style="fill:#ffffff;fill-opacity:1;stroke:#000000;stroke-width:11;stroke-opacity:1" />
  <g
     class=""
     id="g3963">
    <path
       d="M 256,21 C 215,21 174,27.9 140.9,41.34 107.9,54.72 83.2,74.39 72.42,99.26 57.64,144.1 61.7,219.2 83.55,291.8 105.5,364.7 145,435.1 197.3,472.7 c 30.6,22.1 86.8,22.1 117.4,0 52.3,-37.6 91.8,-108 113.7,-180.9 21.9,-72.6 26,-147.7 11.2,-192.54 C 428.8,74.39 404.1,54.72 371.1,41.34 338,27.9 297,21 256,21 Z m 0,18 c 13.7,0 25,11.3 25,25 0,13.7 -11.3,25 -25,25 -13.7,0 -25,-11.3 -25,-25 0,-13.7 11.3,-25 25,-25 z m -76,28 c 13.7,0 25,11.3 25,25 0,13.7 -11.3,25 -25,25 -13.7,0 -25,-11.3 -25,-25 0,-13.7 11.3,-25 25,-25 z m 152,0 c 13.7,0 25,11.3 25,25 0,13.7 -11.3,25 -25,25 -13.7,0 -25,-11.3 -25,-25 0,-13.7 11.3,-25 25,-25 z m -220,36 c 13.7,0 25,11.3 25,25 0,13.7 -11.3,25 -25,25 -13.7,0 -25,-11.3 -25,-25 0,-13.7 11.3,-25 25,-25 z m 288,0 c 13.7,0 25,11.3 25,25 0,13.7 -11.3,25 -25,25 -13.7,0 -25,-11.3 -25,-25 0,-13.7 11.3,-25 25,-25 z m -185.6,34.6 41.6,41.7 41.6,-41.7 12.8,12.8 -54.4,54.3 -54.4,-54.3 z m -55,54.1 h 2.8 c 6.4,0.1 13.2,1.3 20.1,3.8 15.8,5.8 32,18 48.7,38.9 l 4.1,5.1 -3.6,5.5 C 214,271.3 187,285 160,285 133,285 106,271.3 88.51,245 l -4.09,-6.1 5.22,-5.3 c 6.94,-6.9 24.06,-28.9 49.26,-38.1 6.3,-2.3 13.2,-3.7 20.5,-3.8 z m 190.4,0 h 2.8 c 7.3,0.1 14.2,1.5 20.5,3.8 25.2,9.2 42.3,31.2 49.3,38.1 l 5.2,5.3 -4.1,6.1 C 406,271.3 379,285 352,285 c -27,0 -54,-13.7 -71.5,-40 l -3.6,-5.5 4.1,-5.1 c 16.7,-20.9 32.9,-33.1 48.7,-38.9 6.9,-2.5 13.7,-3.7 20.1,-3.8 z m -190.1,17.9 c -5.1,0.1 -9.9,1.2 -14.6,2.9 -15.6,5.6 -28.2,18.7 -37.3,28.2 14.2,17.7 33.2,26.3 52.2,26.3 19.1,0 38.2,-8.6 52.4,-26.5 -13.4,-15.5 -25.7,-24.2 -36.2,-28 -5.9,-2.2 -11.3,-3 -16.5,-2.9 z m 192.6,0 c -5.2,-0.1 -10.6,0.7 -16.5,2.9 -10.5,3.8 -22.8,12.5 -36.2,28 14.2,17.9 33.3,26.5 52.4,26.5 19,0 38,-8.6 52.2,-26.3 -9.1,-9.5 -21.7,-22.6 -37.3,-28.2 -4.7,-1.7 -9.5,-2.8 -14.6,-2.9 z M 247,240 h 18 l 7,112 c 0,16 -32,16 -32,0 z M 61.29,279.1 C 47.11,280.3 35.54,290.9 27.85,304.7 19.67,319.4 15,338.8 15,360 c 0,21.2 4.67,40.6 12.85,55.3 C 36.03,430 48.58,441 64,441 c 15.42,0 27.97,-11 36.2,-25.7 3.2,-5.8 5.9,-12.4 8,-19.6 -4.8,-8.3 -9.36,-16.9 -13.62,-25.7 -1.22,14.4 -5.02,27.3 -10.16,36.5 C 78.12,417.9 70.67,423 64,423 57.33,423 49.88,417.9 43.58,406.5 37.29,395.2 33,378.5 33,360 33,341.5 37.29,324.8 43.58,313.5 49.88,302.1 57.33,297 64,297 c 0.79,0 1.58,0.1 2.39,0.2 -0.02,-0.1 -0.05,-0.1 -0.07,-0.2 -1.79,-6 -3.46,-11.9 -5.03,-17.9 z m 389.41,0 c -1.5,6 -3.2,11.9 -5,17.9 0,0.1 0,0.1 -0.1,0.2 0.8,-0.1 1.6,-0.2 2.4,-0.2 6.7,0 14.1,5.1 20.4,16.5 6.3,11.3 10.6,28 10.6,46.5 0,18.5 -4.3,35.2 -10.6,46.5 -6.3,11.4 -13.7,16.5 -20.4,16.5 -6.7,0 -14.1,-5.1 -20.4,-16.5 -5.1,-9.2 -9,-22 -10.2,-36.5 -4.2,8.8 -8.8,17.4 -13.5,25.7 2,7.2 4.7,13.8 7.9,19.6 8.2,14.7 20.8,25.7 36.2,25.7 15.4,0 28,-11 36.2,-25.7 8.1,-14.7 12.8,-34.1 12.8,-55.3 0,-21.2 -4.7,-40.6 -12.8,-55.3 -7.7,-13.8 -19.3,-24.4 -33.5,-25.6 z m -233.1,2.5 12.8,12.8 c -9.1,9 -25.3,21.1 -44,31.5 C 167.7,336.3 147,345 128,345 v -18 c 13,0 32.3,-7.3 49.6,-16.9 17.3,-9.6 33.1,-21.5 40,-28.5 z m 76.8,0 c 6.9,7 22.7,18.9 40,28.5 17.3,9.6 36.6,16.9 49.6,16.9 v 18 c -19,0 -39.7,-8.7 -58.4,-19.1 -18.7,-10.4 -34.9,-22.5 -44,-31.5 z m -76.8,48 12.8,12.8 c -9.1,9 -21.7,17.3 -34.4,23.7 -12.7,6.3 -25,10.9 -36,10.9 v -18 c 5,0 16.7,-3.4 28,-9.1 11.3,-5.6 22.7,-13.3 29.6,-20.3 z m 76.8,0 c 6.9,7 18.3,14.7 29.6,20.3 11.3,5.7 23,9.1 28,9.1 v 18 c -11,0 -23.3,-4.6 -36,-10.9 -12.7,-6.4 -25.3,-14.7 -34.4,-23.7 z M 256,391 c 18.6,0 35.4,2.7 48.4,7.6 6.5,2.4 12.1,5.4 16.5,9.3 4.5,4 8.1,9.5 8.1,16.1 0,6.6 -3.6,12.1 -8.1,16.1 -4.4,3.9 -10,6.9 -16.5,9.3 -13,4.9 -29.8,7.6 -48.4,7.6 -18.6,0 -35.4,-2.7 -48.4,-7.6 -6.5,-2.4 -12.1,-5.4 -16.5,-9.3 -4.5,-4 -8.1,-9.5 -8.1,-16.1 0,-6.6 3.6,-12.1 8.1,-16.1 4.4,-3.9 10,-6.9 16.5,-9.3 13,-4.9 29.8,-7.6 48.4,-7.6 z"
       id="path3961"
       inkscape:connector-curvature="0"
       style="fill:#000000;fill-opacity:1" />
  </g>
</svg>
