<?xml version="1.0" encoding="UTF-8" standalone="no"?>
<svg
   xmlns:dc="http://purl.org/dc/elements/1.1/"
   xmlns:cc="http://creativecommons.org/ns#"
   xmlns:rdf="http://www.w3.org/1999/02/22-rdf-syntax-ns#"
   xmlns:svg="http://www.w3.org/2000/svg"
   xmlns="http://www.w3.org/2000/svg"
   xmlns:sodipodi="http://sodipodi.sourceforge.net/DTD/sodipodi-0.dtd"
   xmlns:inkscape="http://www.inkscape.org/namespaces/inkscape"
   viewBox="0 0 512 512"
   version="1.1"
   id="svg4189"
   sodipodi:docname="pill.svg"
   width="135.46666mm"
   height="135.46666mm"
   inkscape:version="0.92.4 (5da689c313, 2019-01-14)">
  <metadata
     id="metadata4195">
    <rdf:RDF>
      <cc:Work
         rdf:about="">
        <dc:format>image/svg+xml</dc:format>
        <dc:type
           rdf:resource="http://purl.org/dc/dcmitype/StillImage" />
        <dc:title></dc:title>
      </cc:Work>
    </rdf:RDF>
  </metadata>
  <defs
     id="defs4193" />
  <sodipodi:namedview
     pagecolor="#ffffff"
     bordercolor="#666666"
     borderopacity="1"
     objecttolerance="10"
     gridtolerance="10"
     guidetolerance="10"
     inkscape:pageopacity="0"
     inkscape:pageshadow="2"
     inkscape:window-width="640"
     inkscape:window-height="480"
     id="namedview4191"
     showgrid="false"
     units="mm"
     inkscape:zoom="0.4609375"
     inkscape:cx="256"
     inkscape:cy="256"
     inkscape:window-x="0"
     inkscape:window-y="0"
     inkscape:window-maximized="0"
     inkscape:current-layer="svg4189" />
  <path
     d="M 11,11 H 501 V 501 H 11 Z"
     id="path4183"
     inkscape:connector-curvature="0"
     style="fill:#ffffff;fill-opacity:1;stroke:#000000;stroke-width:11;stroke-opacity:1" />
  <g
     class=""
     id="g4187">
    <path
       d="m 383.72,70.188 c -1.145,-0.01 -2.293,0 -3.44,0.03 -16.662,0.428 -33.436,4.925 -48.81,13.907 C 182.876,170.928 229.763,142.845 77.937,230.5 l -4.656,2.688 v 0.312 c -45.61,29.694 -60.683,90.445 -33.155,138.125 28.464,49.3 91.974,66.493 141.188,37.78 151.39,-88.32 104.363,-60.41 253.5,-146.374 49.327,-28.43 66.307,-91.824 37.843,-141.124 C 453.7,89.073 419.187,70.465 383.72,70.187 Z m 1.342,16.468 c 25.255,0.406 49.682,13.512 63.094,36.844 1.82,3.164 2.786,6.918 4.094,10.22 -22.875,-25.86 -61.86,-33.04 -92.97,-15 -64.527,37.42 -83.64,48.864 -105.686,61.874 22.46,19.385 44.32,52.128 54.25,82.03 -56.72,32.796 -51.65,30.67 -148.844,87.032 -31.11,18.04 -70.094,10.858 -92.97,-15 1.31,3.3 2.277,7.055 4.095,10.22 20.438,35.552 66.447,47.306 102,26.687 93.043,-53.956 91.828,-53.805 141.188,-82.313 0.507,9.606 -1.02,18.18 -5.094,24.938 -28.792,16.492 -53.304,30.647 -136.345,79.093 -40.39,23.566 -92.154,9.545 -115.563,-31 -23.408,-40.542 -9.574,-92.186 30.97,-115.592 l 4.687,-2.72 c 73.185,-42.234 98.623,-56.668 125.81,-72.25 37.072,-21.5 44.154,-26.065 128.376,-74.905 12.222,-7.088 25.678,-10.37 38.906,-10.157 z"
       id="path4185"
       inkscape:connector-curvature="0"
       style="fill:#000000;fill-opacity:1" />
  </g>
</svg>
