<?xml version="1.0" encoding="UTF-8" standalone="no"?>
<svg
   xmlns:dc="http://purl.org/dc/elements/1.1/"
   xmlns:cc="http://creativecommons.org/ns#"
   xmlns:rdf="http://www.w3.org/1999/02/22-rdf-syntax-ns#"
   xmlns:svg="http://www.w3.org/2000/svg"
   xmlns="http://www.w3.org/2000/svg"
   xmlns:sodipodi="http://sodipodi.sourceforge.net/DTD/sodipodi-0.dtd"
   xmlns:inkscape="http://www.inkscape.org/namespaces/inkscape"
   viewBox="0 0 512 512"
   version="1.1"
   id="svg4119"
   sodipodi:docname="bus.svg"
   width="135.46666mm"
   height="135.46666mm"
   inkscape:version="0.92.4 (5da689c313, 2019-01-14)">
  <metadata
     id="metadata4125">
    <rdf:RDF>
      <cc:Work
         rdf:about="">
        <dc:format>image/svg+xml</dc:format>
        <dc:type
           rdf:resource="http://purl.org/dc/dcmitype/StillImage" />
        <dc:title></dc:title>
      </cc:Work>
    </rdf:RDF>
  </metadata>
  <defs
     id="defs4123" />
  <sodipodi:namedview
     pagecolor="#ffffff"
     bordercolor="#666666"
     borderopacity="1"
     objecttolerance="10"
     gridtolerance="10"
     guidetolerance="10"
     inkscape:pageopacity="0"
     inkscape:pageshadow="2"
     inkscape:window-width="640"
     inkscape:window-height="480"
     id="namedview4121"
     showgrid="false"
     units="mm"
     inkscape:zoom="0.4609375"
     inkscape:cx="256"
     inkscape:cy="256"
     inkscape:window-x="0"
     inkscape:window-y="0"
     inkscape:window-maximized="0"
     inkscape:current-layer="svg4119" />
  <path
     d="M 11,11 H 501 V 501 H 11 Z"
     id="path4113"
     inkscape:connector-curvature="0"
     style="fill:#ffffff;fill-opacity:1;stroke:#000000;stroke-width:11;stroke-opacity:1" />
  <g
     class=""
     id="g4117">
    <path
       d="m 47,145 c -10,0 -23,12.4 -23,24.9 v 134.3 l 52.49,7.5 C 84.97,297 100.9,287 119,287 c 21,0 39,13.3 45.9,32 h 188.2 c 6.9,-18.7 24.9,-32 45.9,-32 21,0 39,13.3 45.9,32 H 488 V 241.8 L 456.5,145 Z m -9,14 h 405.6 l 25.6,82 H 296 v 64 H 198 V 241 H 38 Z m 18,18 v 46 h 62 v -46 z m 80,0 v 46 h 62 v -46 z m 80,0 v 110 h 22 V 177 Z m 40,0 v 110 h 22 V 177 Z m 40,0 v 46 h 62 v -46 z m 86.6,0 v 46 h 62.2 L 430.4,177 Z M 119,305 c -17.2,0 -31,13.8 -31,31 0,17.2 13.8,31 31,31 17.2,0 31,-13.8 31,-31 0,-17.2 -13.8,-31 -31,-31 z m 280,0 c -17.2,0 -31,13.8 -31,31 0,17.2 13.8,31 31,31 17.2,0 31,-13.8 31,-31 0,-17.2 -13.8,-31 -31,-31 z m -280,23 a 8,8 0 0 1 8,8 8,8 0 0 1 -8,8 8,8 0 0 1 -8,-8 8,8 0 0 1 8,-8 z m 280,0 a 8,8 0 0 1 8,8 8,8 0 0 1 -8,8 8,8 0 0 1 -8,-8 8,8 0 0 1 8,-8 z"
       id="path4115"
       inkscape:connector-curvature="0"
       style="fill:#000000;fill-opacity:1" />
  </g>
</svg>
