<?xml version="1.0" encoding="UTF-8" standalone="no"?>
<!-- Created with Inkscape (http://www.inkscape.org/) -->

<svg
   xmlns:dc="http://purl.org/dc/elements/1.1/"
   xmlns:cc="http://creativecommons.org/ns#"
   xmlns:rdf="http://www.w3.org/1999/02/22-rdf-syntax-ns#"
   xmlns:svg="http://www.w3.org/2000/svg"
   xmlns="http://www.w3.org/2000/svg"
   xmlns:xlink="http://www.w3.org/1999/xlink"
   xmlns:sodipodi="http://sodipodi.sourceforge.net/DTD/sodipodi-0.dtd"
   xmlns:inkscape="http://www.inkscape.org/namespaces/inkscape"
   width="965"
   height="720"
   viewBox="0 0 255.32291 190.5"
   version="1.1"
   id="svg10310"
   sodipodi:docname="game-state-background.svg"
   inkscape:version="0.92.4 (5da689c313, 2019-01-14)">
  <defs
     id="defs10304">
    <linearGradient
       inkscape:collect="always"
       xlink:href="#id0"
       id="linearGradient10976"
       gradientUnits="userSpaceOnUse"
       x1="29675.883"
       y1="29632.828"
       x2="29675.883"
       y2="29125.064"
       gradientTransform="matrix(0.0130571,0,0,0.01869758,-288.35635,-430.0274)" />
    <linearGradient
       id="id0"
       gradientUnits="objectBoundingBox"
       x1="0.50001997"
       y1="0.88998598"
       x2="0.50001997"
       y2="0.109987">
      <stop
         offset="0"
         style="stop-color:#FFCC00"
         id="stop9" />
      <stop
         offset="1"
         style="stop-color:#FFF71F"
         id="stop11" />
    </linearGradient>
  </defs>
  <sodipodi:namedview
     id="base"
     pagecolor="#ffffff"
     bordercolor="#666666"
     borderopacity="1.0"
     inkscape:pageopacity="0.0"
     inkscape:pageshadow="2"
     inkscape:zoom="1.4"
     inkscape:cx="243.76111"
     inkscape:cy="441.3767"
     inkscape:document-units="mm"
     inkscape:current-layer="layer1"
     showgrid="false"
     units="px"
     inkscape:window-width="1878"
     inkscape:window-height="1016"
     inkscape:window-x="42"
     inkscape:window-y="27"
     inkscape:window-maximized="1" />
  <metadata
     id="metadata10307">
    <rdf:RDF>
      <cc:Work
         rdf:about="">
        <dc:format>image/svg+xml</dc:format>
        <dc:type
           rdf:resource="http://purl.org/dc/dcmitype/StillImage" />
        <dc:title />
      </cc:Work>
    </rdf:RDF>
  </metadata>
  <g
     inkscape:label="Layer 1"
     inkscape:groupmode="layer"
     id="layer1"
     transform="translate(0,-106.49998)">
    <g
       id="g972"
       transform="translate(0,4.2333335)">
      <path
         style="clip-rule:evenodd;fill:#000000;fill-opacity:0.10196102;fill-rule:evenodd;stroke-width:0.06262742;image-rendering:optimizeQuality;shape-rendering:geometricPrecision;text-rendering:geometricPrecision"
         inkscape:connector-curvature="0"
         id="path7459"
         d="M 15.944341,103.71809 H 245.96889 c 4.83203,0 8.85872,1.75329 8.85872,3.93516 v 23.14342 c 0,2.18187 -4.02669,3.93516 -8.85872,3.93516 H 15.944341 c -4.832026,0 -8.8587138,-1.75329 -8.8587138,-3.93516 v -23.14342 c 0,-2.18187 4.0266878,-3.93516 8.8587138,-3.93516 z"
         class="fil1" />
      <path
         style="clip-rule:evenodd;fill:#e6e6e6;fill-rule:evenodd;stroke-width:0.06262742;image-rendering:optimizeQuality;shape-rendering:geometricPrecision;text-rendering:geometricPrecision"
         inkscape:connector-curvature="0"
         id="path7461"
         d="M 13.528328,102.47131 H 243.55288 c 4.83203,0 8.85871,1.79225 8.85871,3.93516 v 23.18238 c 0,2.14291 -4.02668,3.89619 -8.85871,3.89619 H 13.528328 c -4.8320256,0 -8.8587136,-1.75328 -8.8587136,-3.89619 v -23.18238 c 0,-2.14291 3.9260208,-3.93516 8.8587136,-3.93516 z"
         class="fil2" />
      <path
         style="clip-rule:evenodd;fill:#ffffff;fill-rule:evenodd;stroke-width:0.06262742;image-rendering:optimizeQuality;shape-rendering:geometricPrecision;text-rendering:geometricPrecision"
         inkscape:connector-curvature="0"
         id="path7463"
         d="M 13.528328,101.65311 H 243.55288 c 4.83203,0 8.85871,1.79225 8.85871,3.93516 v 23.18238 c 0,2.1429 -4.02668,3.89619 -8.85871,3.89619 H 13.528328 c -4.8320256,0 -8.8587136,-1.75329 -8.8587136,-3.89619 v -23.18238 c 0,-2.14291 3.9260208,-3.93516 8.8587136,-3.93516 z"
         class="fil3" />
      <path
         style="clip-rule:evenodd;fill:#e6e6e6;fill-rule:evenodd;stroke-width:0.06262742;image-rendering:optimizeQuality;shape-rendering:geometricPrecision;text-rendering:geometricPrecision"
         inkscape:connector-curvature="0"
         id="path7465"
         d="M 18.964357,104.30252 H 239.22419 c 4.53002,0 8.25471,1.6364 8.25471,3.66243 v 18.70175 c 0,2.02602 -3.72469,3.70139 -8.25471,3.70139 H 18.964357 c -4.530024,0 -8.254711,-1.67537 -8.254711,-3.70139 v -18.70175 c 0,-2.02603 3.724687,-3.66243 8.254711,-3.66243 z"
         class="fil2" />
      <path
         style="clip-rule:evenodd;fill:#f1c383;fill-rule:evenodd;stroke-width:0.06262742;image-rendering:optimizeQuality;shape-rendering:geometricPrecision;text-rendering:geometricPrecision"
         inkscape:connector-curvature="0"
         id="path7467"
         d="M 17.152347,103.79602 H 237.61352 c 4.53002,0 8.15404,1.67536 8.15404,3.66242 v 18.19525 c 0,2.02602 -3.62402,3.70138 -8.15404,3.70138 H 17.152347 c -4.530024,0 -8.2547102,-1.67536 -8.2547102,-3.70138 v -18.19525 c 0,-1.98706 3.6240192,-3.66242 8.2547102,-3.66242 z"
         class="fil4" />
      <path
         style="clip-rule:evenodd;fill:#faeecc;fill-rule:evenodd;stroke-width:0.06262742;image-rendering:optimizeQuality;shape-rendering:geometricPrecision;text-rendering:geometricPrecision"
         inkscape:connector-curvature="0"
         id="path7469"
         d="M 16.951013,102.86093 H 235.80151 c 4.53002,0 8.15404,1.59744 8.15404,3.5845 v 17.10431 c 0,1.98706 -3.62402,3.62346 -8.15404,3.62346 H 16.951013 c -4.429357,0 -8.0533762,-1.6364 -8.0533762,-3.62346 v -17.10431 c 0,-1.98706 3.6240192,-3.5845 8.0533762,-3.5845 z"
         class="fil5" />
      <path
         class="fil6"
         d="m 18.259686,103.327 c 72.077716,0 144.155434,0 216.233144,0 4.42936,0 8.05338,1.59744 8.05338,3.5845 0,5.37676 0,10.79247 0,16.20819 0,1.9481 -3.62402,3.5845 -8.05338,3.5845 -72.07771,0 -144.155428,0 -216.233144,0 -4.328689,0 -7.952708,-1.6364 -7.952708,-3.5845 0,-5.41572 0,-10.83143 0,-16.20819 0,-1.98706 3.523352,-3.5845 7.952708,-3.5845 z"
         id="path7473"
         inkscape:connector-curvature="0"
         style="clip-rule:evenodd;fill:#faedc9;fill-rule:evenodd;stroke-width:0.06262742;image-rendering:optimizeQuality;shape-rendering:geometricPrecision;text-rendering:geometricPrecision" />
      <path
         class="fil7"
         d="m 19.56836,103.79455 c 71.272378,0 142.44409,0 213.6158,0 4.42936,0 7.95271,1.59744 7.95271,3.54554 0,5.10402 0,10.20804 0,15.35102 0,1.90913 -3.52335,3.50657 -7.95271,3.50657 -71.17171,0 -142.343422,0 -213.6158,0 -4.32869,0 -7.852042,-1.59744 -7.852042,-3.50657 0,-5.14298 0,-10.247 0,-15.35102 0,-1.9481 3.523352,-3.54554 7.852042,-3.54554 z"
         id="path7475"
         inkscape:connector-curvature="0"
         style="clip-rule:evenodd;fill:#f9ecc6;fill-rule:evenodd;stroke-width:0.06262742;image-rendering:optimizeQuality;shape-rendering:geometricPrecision;text-rendering:geometricPrecision" />
      <path
         class="fil8"
         d="m 20.877034,104.30105 c 70.366372,0 140.732746,0 210.998446,0 4.32869,0 7.85205,1.55848 7.85205,3.46762 0,4.83128 0,9.66257 0,14.45489 0,1.9481 -3.52336,3.50658 -7.85205,3.50658 -70.2657,0 -140.632074,0 -210.998446,0 -4.228023,0 -7.751375,-1.55848 -7.751375,-3.50658 0,-4.79232 0,-9.62361 0,-14.45489 0,-1.90914 3.523352,-3.46762 7.751375,-3.46762 z"
         id="path7477"
         inkscape:connector-curvature="0"
         style="clip-rule:evenodd;fill:#f9ebc2;fill-rule:evenodd;stroke-width:0.06262742;image-rendering:optimizeQuality;shape-rendering:geometricPrecision;text-rendering:geometricPrecision" />
      <path
         class="fil9"
         d="m 22.185707,104.7686 c 69.460368,0 138.920733,0 208.381103,0 4.22802,0 7.75138,1.55847 7.75138,3.42865 0,4.55855 0,9.07814 0,13.59773 0,1.90914 -3.52336,3.42866 -7.75138,3.42866 -69.46037,0 -138.920735,0 -208.381103,0 -4.228022,0 -7.650707,-1.51952 -7.650707,-3.42866 0,-4.51959 0,-9.03918 0,-13.59773 0,-1.87018 3.422685,-3.42865 7.650707,-3.42865 z"
         id="path7479"
         inkscape:connector-curvature="0"
         style="clip-rule:evenodd;fill:#f8eabf;fill-rule:evenodd;stroke-width:0.06262742;image-rendering:optimizeQuality;shape-rendering:geometricPrecision;text-rendering:geometricPrecision" />
      <path
         class="fil10"
         d="m 23.494381,105.23614 c 68.65503,0 137.209389,0 205.763759,0 4.22802,0 7.6507,1.55848 7.6507,3.38969 0,4.24686 0,8.49371 0,12.74057 0,1.87017 -3.42268,3.38969 -7.6507,3.38969 -68.55437,0 -137.108729,0 -205.763759,0 -4.127355,0 -7.55004,-1.51952 -7.55004,-3.38969 0,-4.24686 0,-8.49371 0,-12.74057 0,-1.87017 3.422685,-3.38969 7.55004,-3.38969 z"
         id="path7481"
         inkscape:connector-curvature="0"
         style="clip-rule:evenodd;fill:#f8e9bc;fill-rule:evenodd;stroke-width:0.06262742;image-rendering:optimizeQuality;shape-rendering:geometricPrecision;text-rendering:geometricPrecision" />
      <path
         class="fil11"
         d="m 24.803054,105.74265 c 67.749026,0 135.498056,0 203.146406,0 4.12736,0 7.55004,1.48055 7.55004,3.35073 0,3.93516 0,7.87032 0,11.84444 0,1.83121 -3.42268,3.35073 -7.55004,3.35073 -67.64835,0 -135.39738,0 -203.146406,0 -4.127355,0 -7.449372,-1.51952 -7.449372,-3.35073 0,-3.97412 0,-7.90928 0,-11.84444 0,-1.87018 3.322017,-3.35073 7.449372,-3.35073 z"
         id="path7483"
         inkscape:connector-curvature="0"
         style="clip-rule:evenodd;fill:#f7e8b9;fill-rule:evenodd;stroke-width:0.06262742;image-rendering:optimizeQuality;shape-rendering:geometricPrecision;text-rendering:geometricPrecision" />
      <path
         class="fil12"
         d="m 26.212395,106.21019 c 66.742354,0 133.585375,0 200.428395,0 4.12736,0 7.44937,1.48055 7.44937,3.31177 0,3.66242 0,7.32485 0,10.98728 0,1.79225 -3.32201,3.2728 -7.44937,3.2728 -66.84302,0 -133.686041,0 -200.428395,0 -4.127355,0 -7.449373,-1.48055 -7.449373,-3.2728 0,-3.66243 0,-7.32486 0,-10.98728 0,-1.83122 3.322018,-3.31177 7.449373,-3.31177 z"
         id="path7485"
         inkscape:connector-curvature="0"
         style="clip-rule:evenodd;fill:#f7e7b6;fill-rule:evenodd;stroke-width:0.06262742;image-rendering:optimizeQuality;shape-rendering:geometricPrecision;text-rendering:geometricPrecision" />
      <path
         class="fil13"
         d="m 27.521069,106.67773 c 65.937016,0 131.874031,0 197.811051,0 4.02668,0 7.3487,1.48056 7.3487,3.27281 0,3.35073 0,6.74042 0,10.09115 0,1.79225 -3.32202,3.27281 -7.3487,3.27281 -65.93702,0 -131.874035,0 -197.811051,0 -4.026688,0 -7.348706,-1.48056 -7.348706,-3.27281 0,-3.35073 0,-6.74042 0,-10.09115 0,-1.79225 3.221351,-3.27281 7.348706,-3.27281 z"
         id="path7487"
         inkscape:connector-curvature="0"
         style="clip-rule:evenodd;fill:#f6e6b3;fill-rule:evenodd;stroke-width:0.06262742;image-rendering:optimizeQuality;shape-rendering:geometricPrecision;text-rendering:geometricPrecision" />
      <path
         class="fil14"
         d="m 28.829742,107.18424 c 65.031012,0 130.162688,0 195.193698,0 4.02669,0 7.24804,1.44159 7.24804,3.19488 0,3.078 0,6.15599 0,9.23399 0,1.75329 -3.22135,3.23384 -7.24804,3.23384 -65.03101,0 -130.162686,0 -195.193698,0 -4.026688,0 -7.248038,-1.44159 -7.248038,-3.23384 0,-3.078 0,-6.15599 0,-9.23399 0,-1.75329 3.22135,-3.19488 7.248038,-3.19488 z"
         id="path7489"
         inkscape:connector-curvature="0"
         style="clip-rule:evenodd;fill:#f6e5af;fill-rule:evenodd;stroke-width:0.06262742;image-rendering:optimizeQuality;shape-rendering:geometricPrecision;text-rendering:geometricPrecision" />
      <path
         class="fil15"
         d="m 30.138416,107.65178 c 64.125006,0 128.350684,0 192.576354,0 3.92602,0 7.14737,1.4416 7.14737,3.19488 0,2.76631 0,5.53261 0,8.33787 0,1.75329 -3.22135,3.15592 -7.14737,3.15592 -64.22567,0 -128.451348,0 -192.576354,0 -3.926021,0 -7.147371,-1.40263 -7.147371,-3.15592 0,-2.80526 0,-5.57156 0,-8.33787 0,-1.75328 3.22135,-3.19488 7.147371,-3.19488 z"
         id="path7491"
         inkscape:connector-curvature="0"
         style="clip-rule:evenodd;fill:#f5e4ac;fill-rule:evenodd;stroke-width:0.06262742;image-rendering:optimizeQuality;shape-rendering:geometricPrecision;text-rendering:geometricPrecision" />
      <path
         style="clip-rule:evenodd;fill:#f5e3a9;fill-rule:evenodd;stroke-width:0.06262742;image-rendering:optimizeQuality;shape-rendering:geometricPrecision;text-rendering:geometricPrecision"
         inkscape:connector-curvature="0"
         id="path7493"
         d="M 31.44709,108.1208 H 221.4061 c 3.82535,0 7.0467,1.44159 7.0467,3.15592 v 7.4807 c 0,1.71432 -3.22135,3.11695 -7.0467,3.11695 H 31.44709 c -3.926021,0 -7.046704,-1.40263 -7.046704,-3.11695 v -7.4807 c 0,-1.71433 3.120683,-3.15592 7.046704,-3.15592 z"
         class="fil16" />
      <path
         style="clip-rule:evenodd;fill:#000000;fill-opacity:0.10196102;fill-rule:nonzero;stroke-width:0.01562486;image-rendering:optimizeQuality;shape-rendering:geometricPrecision;text-rendering:geometricPrecision"
         inkscape:connector-curvature="0"
         id="path3949"
         d="m 16.507377,113.12398 h 3.656217 c 0.406246,0 0.765618,0.17187 1.031241,0.4375 0.265623,0.26562 0.437496,0.62499 0.437496,1.03124 v 2.0781 h 2.078106 c 0.406247,0 0.765618,0.15625 1.031241,0.42187 0.265623,0.26563 0.437496,0.64062 0.437496,1.04687 v 3.64059 c 0,0.40625 -0.171873,0.78124 -0.437496,1.04687 -0.265623,0.26562 -0.624994,0.42187 -1.031241,0.42187 h -2.078106 v 2.0781 c 0,0.40625 -0.171873,0.76562 -0.437496,1.03125 -0.265623,0.26562 -0.624995,0.43749 -1.031241,0.43749 h -3.656217 c -0.390622,0 -0.765618,-0.17187 -1.031241,-0.43749 -0.265622,-0.26563 -0.421871,-0.625 -0.421871,-1.03125 v -2.0781 h -2.078106 c -0.406247,0 -0.781243,-0.15625 -1.046866,-0.42187 -0.265623,-0.26563 -0.421871,-0.64062 -0.421871,-1.04687 v -3.64059 c 0,-0.40625 0.156248,-0.78124 0.421871,-1.04687 0.265623,-0.26562 0.640619,-0.42187 1.046866,-0.42187 h 2.078106 v -2.0781 c 0,-0.40625 0.156249,-0.76562 0.421871,-1.03124 0.265623,-0.26563 0.640619,-0.4375 1.031241,-0.4375 z m 3.265596,1.87498 h -2.85935 v 2.60935 0.92187 H 15.976132 13.36678 v 2.85935 h 2.609352 0.937491 v 0.93749 2.59373 h 2.85935 v -2.59373 -0.93749 h 0.921866 2.609352 v -2.85935 h -2.609352 -0.921866 v -0.92187 z"
         class="fil82" />
      <path
         style="clip-rule:evenodd;fill:#e6e6e6;fill-rule:nonzero;stroke-width:0.01562486;image-rendering:optimizeQuality;shape-rendering:geometricPrecision;text-rendering:geometricPrecision"
         inkscape:connector-curvature="0"
         id="path3951"
         d="m 16.507377,112.49898 h 3.656217 c 0.406246,0 0.765618,0.17188 1.031241,0.4375 0.265623,0.26562 0.437496,0.625 0.437496,1.03124 v 2.07811 h 2.078106 c 0.406247,0 0.765618,0.15625 1.031241,0.42187 0.265623,0.26562 0.437496,0.64062 0.437496,1.04686 v 3.6406 c 0,0.40624 -0.171873,0.78124 -0.437496,1.04686 -0.265623,0.26563 -0.624994,0.42187 -1.031241,0.42187 h -2.078106 v 2.07811 c 0,0.40625 -0.171873,0.76562 -0.437496,1.03124 -0.265623,0.26562 -0.624995,0.4375 -1.031241,0.4375 h -3.656217 c -0.390622,0 -0.765618,-0.17188 -1.031241,-0.4375 -0.265622,-0.26562 -0.421871,-0.62499 -0.421871,-1.03124 v -2.07811 h -2.078106 c -0.406247,0 -0.781243,-0.15624 -1.046866,-0.42187 -0.265623,-0.26562 -0.421871,-0.64062 -0.421871,-1.04686 v -3.6406 c 0,-0.40624 0.156248,-0.78124 0.421871,-1.04686 0.265623,-0.26562 0.640619,-0.42187 1.046866,-0.42187 h 2.078106 v -2.07811 c 0,-0.40624 0.156249,-0.76562 0.421871,-1.03124 0.265623,-0.26562 0.640619,-0.4375 1.031241,-0.4375 z m 3.265596,1.87499 h -2.85935 v 2.60935 0.92187 H 15.976132 13.36678 v 2.85935 h 2.609352 0.937491 v 0.93749 2.60935 h 2.85935 v -2.60935 -0.93749 h 0.921866 2.609352 v -2.85935 h -2.609352 -0.921866 v -0.92187 z"
         class="fil88" />
      <path
         style="clip-rule:evenodd;fill:#ffffff;fill-rule:nonzero;stroke-width:0.01562486;image-rendering:optimizeQuality;shape-rendering:geometricPrecision;text-rendering:geometricPrecision"
         inkscape:connector-curvature="0"
         id="path3953"
         d="m 16.507377,112.49898 h 3.656217 c 0.406246,0 0.765618,0.17188 1.031241,0.4375 0.265623,0.25 0.437496,0.60937 0.437496,1.01562 v 0.0156 1.51561 0.5625 h 2.078106 c 0.406247,0 0.765618,0.15625 1.031241,0.42187 0.265623,0.26562 0.421871,0.62499 0.437496,1.01562 v 0.0312 3.10935 c -0.01563,0.39062 -0.171873,0.75 -0.437496,1.01562 -0.265623,0.26562 -0.624994,0.43749 -1.031241,0.43749 h -2.078106 v 0.54687 1.54687 c 0,0.39062 -0.171873,0.74999 -0.437496,1.01561 -0.265623,0.26562 -0.624995,0.42187 -1.031241,0.42187 h -3.656217 c -0.390622,0 -0.765618,-0.15625 -1.031241,-0.42187 -0.265622,-0.26562 -0.421871,-0.62499 -0.421871,-1.01561 v -1.54687 -0.54687 h -2.078106 c -0.406247,0 -0.781243,-0.17187 -1.046866,-0.43749 -0.249998,-0.26562 -0.421871,-0.625 -0.421871,-1.01562 v -3.10935 -0.0312 c 0,-0.39063 0.171873,-0.75 0.421871,-1.01562 0.265623,-0.26562 0.640619,-0.42187 1.046866,-0.42187 h 2.078106 v -0.5625 -1.51561 -0.0156 c 0,-0.40625 0.156249,-0.76562 0.421871,-1.01562 0.265623,-0.26562 0.640619,-0.4375 1.031241,-0.4375 z m 3.265596,1.31249 h -2.85935 v 0.5625 2.60935 0.375 H 15.976132 13.36678 v 0.54687 2.29685 0.5625 h 2.609352 0.937491 v 0.93749 2.04685 0.5625 h 2.85935 v -0.5625 -2.04685 -0.93749 h 0.921866 2.609352 v -0.5625 -2.29685 -0.54687 h -2.609352 -0.921866 v -0.375 -2.60935 z"
         class="fil54" />
      <path
         style="clip-rule:evenodd;fill:#be005b;fill-rule:evenodd;stroke-width:0.01562486;image-rendering:optimizeQuality;shape-rendering:geometricPrecision;text-rendering:geometricPrecision"
         inkscape:connector-curvature="0"
         id="path3955"
         d="m 16.507377,113.2021 h 3.656217 c 0.296872,0 0.531245,0.23438 0.531245,0.53125 v 2.99997 h 3.015598 c 0.296873,0 0.531246,0.25 0.531246,0.54687 v 3.64059 c 0,0.29688 -0.234373,0.53125 -0.531246,0.53125 h -3.015598 v 3.0156 c 0,0.29687 -0.234373,0.53124 -0.531245,0.53124 h -3.656217 c -0.281248,0 -0.531245,-0.23437 -0.531245,-0.53124 v -3.0156 h -2.999973 c -0.296873,0 -0.531246,-0.23437 -0.531246,-0.53125 v -3.64059 c 0,-0.29687 0.234373,-0.54687 0.531246,-0.54687 h 2.999973 v -2.99997 c 0,-0.29687 0.249997,-0.53125 0.531245,-0.53125 z"
         class="fil89" />
      <path
         style="clip-rule:evenodd;fill:#ff5dab;fill-rule:evenodd;stroke-width:0.01562486;image-rendering:optimizeQuality;shape-rendering:geometricPrecision;text-rendering:geometricPrecision"
         inkscape:connector-curvature="0"
         id="path3957"
         d="m 16.507377,113.2021 h 3.656217 c 0.296872,0 0.531245,0.23438 0.531245,0.53125 v 2.24998 0.74999 h 3.015598 c 0.296873,0 0.531246,0.25 0.531246,0.54687 v 2.8906 c 0,0.28125 -0.234373,0.53125 -0.531246,0.53125 h -3.015598 v 0.74999 2.24998 c 0,0.29687 -0.234373,0.53124 -0.531245,0.53124 h -3.656217 c -0.281248,0 -0.531245,-0.23437 -0.531245,-0.53124 v -2.24998 -0.74999 h -2.999973 c -0.296873,0 -0.531246,-0.25 -0.531246,-0.53125 v -2.8906 c 0,-0.29687 0.234373,-0.54687 0.531246,-0.54687 h 2.999973 v -0.74999 -2.24998 c 0,-0.29687 0.249997,-0.53125 0.531245,-0.53125 z"
         class="fil90" />
      <path
         style="clip-rule:evenodd;fill:#ff208f;fill-rule:evenodd;stroke-width:0.01562486;image-rendering:optimizeQuality;shape-rendering:geometricPrecision;text-rendering:geometricPrecision"
         inkscape:connector-curvature="0"
         id="path3959"
         d="m 16.507377,113.2021 h 3.656217 c 0.296872,0 0.531245,0.23438 0.531245,0.53125 v 2.24998 0.57812 0.17187 h 3.015598 c 0.296873,0 0.531246,0.25 0.531246,0.54687 v 2.7031 c 0,0.29688 -0.234373,0.54687 -0.531246,0.54687 h -3.015598 v 0.17188 0.74999 2.07811 c 0,0.29687 -0.234373,0.53124 -0.531245,0.53124 h -3.656217 c -0.281248,0 -0.531245,-0.23437 -0.531245,-0.53124 v -2.07811 -0.74999 -0.17188 h -2.999973 c -0.296873,0 -0.531246,-0.24999 -0.531246,-0.54687 v -2.7031 c 0,-0.29687 0.234373,-0.54687 0.531246,-0.54687 h 2.999973 v -0.17187 -0.57812 -2.24998 c 0,-0.29687 0.249997,-0.53125 0.531245,-0.53125 z"
         class="fil91" />
      <path
         style="clip-rule:evenodd;fill:#fe007a;fill-rule:evenodd;stroke-width:0.01562486;image-rendering:optimizeQuality;shape-rendering:geometricPrecision;text-rendering:geometricPrecision"
         inkscape:connector-curvature="0"
         id="path3961"
         d="m 24.241683,117.62394 v 2.35935 c 0,0.29688 -0.234373,0.54687 -0.531246,0.54687 h -3.015598 v 0.17188 0.74999 2.07811 c 0,0.29687 -0.234373,0.53124 -0.531245,0.53124 h -3.656217 c -0.281248,0 -0.531245,-0.23437 -0.531245,-0.53124 v -1.14062 c 0.312497,-0.14062 0.624994,-0.28125 0.937491,-0.42187 0.718744,-0.32812 1.484362,-0.70312 2.24998,-1.10937 1.578111,-0.84374 2.984348,-1.71873 4.140588,-2.53122 0.343747,-0.25 0.656244,-0.46875 0.937492,-0.70312 z"
         class="fil92" />
      <path
         style="clip-rule:evenodd;fill:#ff3d9a;fill-rule:evenodd;stroke-width:0.01562486;image-rendering:optimizeQuality;shape-rendering:geometricPrecision;text-rendering:geometricPrecision"
         inkscape:connector-curvature="0"
         id="path3963"
         d="m 12.444913,119.98329 c 0,0.53125 0,0.76562 0,0 v -2.7031 c 0,-0.29687 0.234373,-0.54687 0.531246,-0.54687 h 2.999973 v -2.99997 c 0,-0.29687 0.249997,-0.53125 0.531245,-0.53125 h 3.656217 c 0.296872,0 0.531245,0.23438 0.531245,0.53125 v 2.2656 c -0.296872,0.14063 -0.609369,0.26563 -0.921866,0.42187 -0.765619,0.34375 -1.546862,0.73437 -2.359354,1.15624 -0.171874,0.0937 -0.328122,0.1875 -0.499996,0.28125 -0.03125,0.0156 -0.07812,0.0312 -0.109374,0.0469 -1.281238,0.71874 -2.453103,1.43748 -3.437469,2.1406 -0.203123,0.14063 -0.406246,0.29687 -0.60937,0.4375 -0.187498,-0.0781 -0.312497,-0.28125 -0.312497,-0.5 z"
         class="fil93" />
      <path
         style="clip-rule:evenodd;fill:#000000;fill-opacity:0.10196102;fill-rule:nonzero;stroke-width:0.01562486;image-rendering:optimizeQuality;shape-rendering:geometricPrecision;text-rendering:geometricPrecision"
         inkscape:connector-curvature="0"
         id="path7231"
         d="m 102.7964,118.37394 -0.76562,0.125 c 0.43749,0.20312 0.79686,0.42187 1.06249,0.65624 l 0.0156,0.0156 c 0.42187,0.375 0.73437,0.8125 0.95312,1.29687 v 0 c 0.20312,0.48437 0.3125,1.01561 0.3125,1.57811 0,0.32812 -0.0312,0.65624 -0.10938,0.96874 -0.0781,0.3125 -0.1875,0.62499 -0.34374,0.90624 v 0 c -0.15625,0.26562 -0.3125,0.51562 -0.5,0.73437 -0.1875,0.23437 -0.39062,0.4375 -0.60937,0.62499 -0.23437,0.1875 -0.46875,0.34375 -0.70312,0.46875 -0.23437,0.125 -0.48437,0.23437 -0.74999,0.32812 v 0 c -0.14063,0.0469 -0.3125,0.0937 -0.46875,0.125 v 0.0469 c 0,0.43749 -0.1875,0.82811 -0.46874,1.09374 -0.26563,0.28124 -0.656248,0.46874 -1.093744,0.46874 h -0.468745 c -0.421872,0 -0.812493,-0.1875 -1.093741,-0.46874 -0.281247,-0.26563 -0.453121,-0.65625 -0.453121,-1.09374 v -0.0781 c -0.265622,-0.0625 -0.51562,-0.125 -0.749993,-0.21875 -0.265623,-0.0937 -0.51562,-0.21874 -0.749993,-0.35937 -0.234373,-0.14062 -0.468746,-0.3125 -0.671869,-0.49999 v 0 c -0.203123,-0.1875 -0.374997,-0.375 -0.515621,-0.5625 v 0 c -0.156248,-0.20312 -0.296872,-0.40625 -0.406246,-0.62499 v 0 c -0.0625,-0.125 -0.124999,-0.26563 -0.171873,-0.39062 v -0.0156 c -0.0625,-0.15625 -0.09375,-0.25 -0.124999,-0.34375 v 0 c -0.109374,-0.32812 -0.171874,-0.65624 -0.04687,-1.03124 v 0 c 0.156249,-0.43749 0.484371,-0.76562 1.109365,-0.87499 l 0.0625,-0.0156 0.937491,-0.10938 c -0.218748,-0.125 -0.421871,-0.28125 -0.624994,-0.45312 -0.218748,-0.20312 -0.437496,-0.4375 -0.624995,-0.71874 -0.203123,-0.29688 -0.359371,-0.64062 -0.45312,-0.99999 -0.109374,-0.34375 -0.156249,-0.71875 -0.156249,-1.10937 0,-0.53124 0.109374,-1.04686 0.296872,-1.51561 0.203123,-0.46875 0.499996,-0.90624 0.890617,-1.26561 0.359372,-0.35938 0.781243,-0.625 1.296864,-0.82812 0.249997,-0.0937 0.531245,-0.1875 0.843742,-0.25 0.07812,-0.15625 0.187498,-0.3125 0.312497,-0.45312 0.281248,-0.26562 0.671869,-0.45312 1.093741,-0.45312 h 0.468745 c 0.437496,0 0.828119,0.1875 1.093749,0.45312 0.14062,0.14062 0.24999,0.29687 0.32812,0.46875 0.23437,0.0469 0.45312,0.10937 0.67187,0.17187 0.45312,0.15625 0.84374,0.35937 1.18749,0.62499 0.28123,0.21875 0.53123,0.46875 0.73437,0.75 0.20311,0.28124 0.37498,0.57812 0.49998,0.90624 0.0469,0.0937 0.0781,0.20312 0.0937,0.29687 v 0.0156 c 0.0625,0.28124 0.0469,0.57812 -0.0937,0.84374 v 0 c -0.125,0.29687 -0.35937,0.53124 -0.70312,0.67187 v 0 c -0.0937,0.0312 -0.1875,0.0625 -0.29686,0.0937 z"
         class="fil82" />
      <path
         style="clip-rule:evenodd;fill:#e6e6e6;fill-rule:nonzero;stroke-width:0.01562486;image-rendering:optimizeQuality;shape-rendering:geometricPrecision;text-rendering:geometricPrecision"
         inkscape:connector-curvature="0"
         id="path7233"
         d="m 102.7964,117.79582 -0.76562,0.125 c 0.43749,0.20312 0.79686,0.42187 1.06249,0.65624 l 0.0156,0.0156 c 0.42187,0.375 0.73437,0.8125 0.95312,1.29687 v 0 c 0.20312,0.48437 0.3125,1.01561 0.3125,1.57811 0,0.32812 -0.0312,0.65624 -0.10938,0.96874 -0.0781,0.3125 -0.1875,0.62499 -0.34374,0.90624 v 0 c -0.15625,0.26562 -0.3125,0.51562 -0.5,0.73437 -0.1875,0.23437 -0.39062,0.4375 -0.60937,0.62499 -0.23437,0.1875 -0.46875,0.34375 -0.70312,0.46875 -0.23437,0.125 -0.48437,0.23437 -0.74999,0.32812 v 0 c -0.14063,0.0469 -0.3125,0.0937 -0.46875,0.125 v 0.0469 c 0,0.43749 -0.1875,0.81249 -0.46874,1.09374 -0.26563,0.28124 -0.656248,0.46874 -1.093744,0.46874 h -0.468745 c -0.421872,0 -0.812493,-0.1875 -1.093741,-0.46874 -0.281247,-0.28125 -0.453121,-0.65625 -0.453121,-1.09374 v -0.0781 c -0.265622,-0.0625 -0.51562,-0.125 -0.749993,-0.21875 -0.265623,-0.10937 -0.51562,-0.21874 -0.749993,-0.35937 -0.234373,-0.14062 -0.468746,-0.3125 -0.671869,-0.49999 v 0 c -0.203123,-0.1875 -0.374997,-0.375 -0.515621,-0.5625 v 0 c -0.156248,-0.20312 -0.296872,-0.40625 -0.406246,-0.64062 v 0 c -0.0625,-0.10937 -0.124999,-0.25 -0.171873,-0.37499 v -0.0156 c -0.0625,-0.15625 -0.09375,-0.25 -0.124999,-0.34375 v 0 c -0.109374,-0.32812 -0.171874,-0.65624 -0.04687,-1.03124 v 0 c 0.156249,-0.43749 0.484371,-0.76562 1.109365,-0.87499 l 0.0625,-0.0156 0.937491,-0.10938 c -0.218748,-0.125 -0.421871,-0.28125 -0.624994,-0.45312 -0.218748,-0.20312 -0.437496,-0.4375 -0.624995,-0.71874 -0.203123,-0.29688 -0.359371,-0.64062 -0.45312,-0.99999 -0.109374,-0.34375 -0.156249,-0.71875 -0.156249,-1.10937 0,-0.53124 0.109374,-1.04686 0.296872,-1.51561 0.203123,-0.46875 0.499996,-0.90624 0.890617,-1.26561 0.359372,-0.35938 0.781243,-0.625 1.296864,-0.82812 0.249997,-0.0937 0.531245,-0.1875 0.843742,-0.25 0.07812,-0.15625 0.187498,-0.3125 0.312497,-0.45312 0.281248,-0.28125 0.671869,-0.45312 1.093741,-0.45312 h 0.468745 c 0.437496,0 0.828119,0.17187 1.093749,0.45312 0.14062,0.14062 0.24999,0.29687 0.32812,0.46875 0.23437,0.0469 0.45312,0.0937 0.67187,0.17187 0.45312,0.15625 0.84374,0.35937 1.18749,0.62499 0.28123,0.21875 0.53123,0.46875 0.73437,0.75 0.20311,0.28124 0.37498,0.57812 0.49998,0.90624 0.0469,0.0937 0.0781,0.20312 0.0937,0.29687 v 0.0156 c 0.0625,0.28124 0.0469,0.57812 -0.0937,0.84374 v 0 c -0.125,0.29687 -0.35937,0.53124 -0.70312,0.67187 v 0 c -0.0937,0.0312 -0.1875,0.0625 -0.29686,0.0937 z"
         class="fil88" />
      <path
         style="clip-rule:evenodd;fill:#ffffff;fill-rule:nonzero;stroke-width:0.01562486;image-rendering:optimizeQuality;shape-rendering:geometricPrecision;text-rendering:geometricPrecision"
         inkscape:connector-curvature="0"
         id="path7235"
         d="m 102.03078,117.92082 c 1.39061,0.65624 2.2656,1.7656 2.34373,3.32809 -0.0625,1.18749 -0.65625,2.28123 -1.56249,3.0156 -0.59374,0.46874 -1.20311,0.76562 -1.92186,0.92187 v 0.0625 c 0,0.42188 -0.1875,0.8125 -0.46874,1.09374 -0.624998,0.625 -2.031235,0.625 -2.65623,0 -0.281247,-0.28124 -0.453121,-0.67186 -0.453121,-1.09374 v -0.0937 c -0.531245,-0.10938 -1.046865,-0.29688 -1.499986,-0.57812 -0.937492,-0.5625 -1.828109,-1.70311 -1.984357,-2.81248 0.171873,-1.10936 1.249988,-1.10936 2.15623,-1.21874 0.687494,-0.0469 -0.453121,-0.73437 -0.624994,-0.87499 -0.499996,-0.46875 -0.890617,-1.06249 -1.078115,-1.71873 -0.07813,-0.28125 -0.124999,-0.57812 -0.140624,-0.89062 0.01563,-0.46875 0.109374,-0.90624 0.281247,-1.31249 0.203123,-0.46875 0.499996,-0.90624 0.890617,-1.26561 0.359372,-0.35938 0.781243,-0.625 1.296864,-0.82812 0.249997,-0.0937 0.531245,-0.1875 0.843742,-0.25 0.07812,-0.15625 0.187498,-0.3125 0.312497,-0.45312 0.281248,-0.28125 0.671869,-0.45312 1.093741,-0.45312 h 0.468745 c 0.437496,0 0.828114,0.17187 1.093744,0.45312 0.14062,0.14062 0.24999,0.29687 0.32812,0.46875 0.23437,0.0469 0.45312,0.0937 0.67187,0.17187 0.45312,0.15625 0.84374,0.35937 1.18749,0.62499 0.28124,0.21875 0.53124,0.46875 0.73437,0.75 0.20312,0.28124 0.37499,0.57812 0.49999,0.90624 0.0469,0.0937 0.0781,0.20312 0.0937,0.29687 v 0.0156 l 0.0156,0.0781 c -0.15624,1.01562 -1.06249,1.09374 -1.92185,1.21874 -0.39062,0.0781 -0.46875,0.17187 0,0.4375 z"
         class="fil54" />
      <path
         style="clip-rule:evenodd;fill:#dcb000;fill-rule:nonzero;stroke-width:0.01562486;image-rendering:optimizeQuality;shape-rendering:geometricPrecision;text-rendering:geometricPrecision"
         inkscape:connector-curvature="0"
         id="path7237"
         d="m 102.65577,116.62395 -1.81248,0.28125 c -0.39062,0.0781 -0.46875,-0.1875 -0.51562,-0.29687 -0.0781,-0.14063 -0.14063,-0.25 -0.20313,-0.32812 -0.0625,-0.0625 -0.124995,-0.14063 -0.234369,-0.20313 v 1.92186 c 1.265609,0.35937 2.109359,0.73437 2.562479,1.12499 0.62499,0.56249 0.93749,1.28124 0.93749,2.14061 0,0.51562 -0.10937,0.98436 -0.34375,1.40623 -0.21875,0.42187 -0.51562,0.78125 -0.85936,1.06249 -0.35938,0.28125 -0.73437,0.5 -1.12499,0.625 -0.32813,0.10937 -0.71875,0.17187 -1.171869,0.20312 v 0.90624 c 0,0.3125 -0.249997,0.5625 -0.562495,0.5625 h -0.468745 c -0.312498,0 -0.562495,-0.25 -0.562495,-0.5625 v -0.92186 c -0.562495,-0.0625 -1.015616,-0.15625 -1.374988,-0.29688 -0.437496,-0.15624 -0.796868,-0.37499 -1.109365,-0.65624 -0.312497,-0.29687 -0.54687,-0.59375 -0.718744,-0.92187 -0.09375,-0.1875 -0.171873,-0.39062 -0.249997,-0.60937 -0.09375,-0.29687 -0.109375,-0.56249 0.312497,-0.62499 l 1.765609,-0.20312 c 0.468746,-0.10938 0.718743,0 0.718743,0.34374 0,0.1875 0.09375,0.375 0.234373,0.57812 0.109374,0.125 0.234373,0.25 0.421872,0.375 v -2.3906 c -0.796868,-0.23438 -1.374988,-0.4375 -1.718735,-0.60937 -0.390622,-0.1875 -0.734368,-0.5 -1.031241,-0.92187 -0.281247,-0.42187 -0.437496,-0.93749 -0.437496,-1.53124 0,-0.84374 0.296872,-1.53123 0.874992,-2.09373 0.531246,-0.51562 1.312489,-0.81249 2.31248,-0.90624 v -0.21875 c 0,-0.3125 0.249997,-0.56249 0.562495,-0.56249 h 0.468745 c 0.312498,0 0.562495,0.24999 0.562495,0.56249 v 0.21875 c 0.906239,0.0937 1.609359,0.32812 2.109359,0.71874 0.42187,0.32813 0.73437,0.73437 0.93749,1.24999 0.10937,0.26562 0.0625,0.51562 -0.28125,0.57812 z m -2.765599,3.99997 v 2.04685 c 0.249999,-0.0781 0.453119,-0.20312 0.578119,-0.34374 0.1875,-0.20313 0.28125,-0.4375 0.28125,-0.6875 0,-0.21875 -0.0781,-0.42187 -0.23437,-0.60937 -0.10938,-0.14062 -0.32813,-0.28124 -0.624999,-0.40624 z m -1.593735,-3.09373 v -1.54686 c -0.156249,0.0625 -0.265623,0.15625 -0.343747,0.25 -0.109374,0.14062 -0.171874,0.3125 -0.171874,0.5 0,0.20312 0.0625,0.39062 0.187499,0.53124 0.0625,0.10938 0.187498,0.1875 0.328122,0.26562 z"
         class="fil94" />
      <path
         style="clip-rule:evenodd;fill:#fef500;fill-rule:nonzero;stroke-width:0.01562486;image-rendering:optimizeQuality;shape-rendering:geometricPrecision;text-rendering:geometricPrecision"
         inkscape:connector-curvature="0"
         id="path7239"
         d="m 99.890171,116.07708 v 1.35936 0.5625 c 1.265609,0.35937 2.109359,0.73437 2.562479,1.12499 0.54687,0.5 0.85937,1.12499 0.92187,1.85936 -0.0312,0.40624 -0.14063,0.76562 -0.32813,1.10936 -0.21875,0.4375 -0.51562,0.78125 -0.85936,1.07812 -0.35938,0.28125 -0.73437,0.48437 -1.12499,0.60937 -0.32813,0.10937 -0.71875,0.1875 -1.171869,0.21875 v 0.56249 0.34375 c 0,0.31249 -0.249997,0.56249 -0.562495,0.56249 h -0.468745 c -0.312498,0 -0.562495,-0.25 -0.562495,-0.56249 v -0.35937 -0.5625 c -0.562495,-0.0625 -1.015616,-0.15625 -1.374988,-0.29687 -0.437496,-0.15625 -0.796868,-0.39062 -1.109365,-0.67187 -0.312497,-0.28125 -0.54687,-0.59374 -0.718744,-0.92187 -0.07812,-0.15625 -0.156248,-0.34374 -0.218748,-0.53124 0.0625,-0.0625 0.156249,-0.10938 0.281248,-0.125 l 1.765609,-0.20312 c 0.468746,-0.10938 0.718743,0 0.718743,0.34374 0,0.1875 0.09375,0.375 0.234373,0.57812 0.109374,0.125 0.234373,0.25 0.421872,0.375 v -0.57812 -1.81248 -0.57812 c -0.796868,-0.21875 -1.374988,-0.42188 -1.718735,-0.59375 -0.390622,-0.1875 -0.734368,-0.49999 -1.031241,-0.92187 -0.234373,-0.35937 -0.374996,-0.78124 -0.421871,-1.24998 0.0625,-0.71875 0.343747,-1.31249 0.859367,-1.81249 0.531246,-0.51562 1.312489,-0.81249 2.31248,-0.90624 v -0.21875 c 0,-0.3125 0.249997,-0.56249 0.562495,-0.56249 h 0.468745 c 0.312498,0 0.562495,0.24999 0.562495,0.56249 v 0.21875 c 0.906239,0.0937 1.609359,0.32812 2.109359,0.71874 0.39062,0.29688 0.68749,0.6875 0.89061,1.14062 -0.0469,0.0625 -0.12499,0.0937 -0.23437,0.125 l -1.81248,0.28124 c -0.39062,0.0625 -0.46875,-0.20312 -0.51562,-0.29687 -0.0781,-0.14062 -0.14063,-0.25 -0.20313,-0.32812 -0.0625,-0.0781 -0.124995,-0.14062 -0.234369,-0.20312 z m 0,3.98434 v 0.5625 1.48436 0.56249 c 0.249999,-0.0781 0.453119,-0.20312 0.578119,-0.34374 0.1875,-0.20313 0.28125,-0.4375 0.28125,-0.6875 0,-0.0937 -0.0156,-0.1875 -0.0469,-0.28125 0.0312,-0.0937 0.0469,-0.18749 0.0469,-0.29687 0,-0.21875 -0.0781,-0.42187 -0.23437,-0.60937 -0.10938,-0.14062 -0.32813,-0.26562 -0.624999,-0.39062 z m -1.593735,-4.07809 v -0.57812 c -0.156249,0.0781 -0.265623,0.15625 -0.343747,0.25 -0.109374,0.14062 -0.171874,0.3125 -0.171874,0.51562 0,0.0937 0.01563,0.20312 0.04687,0.28125 -0.03125,0.0937 -0.04687,0.1875 -0.04687,0.28125 0,0.20312 0.0625,0.39062 0.187499,0.53124 0.0625,0.10938 0.187498,0.1875 0.328122,0.26562 v -0.56249 z"
         class="fil95" />
      <path
         inkscape:connector-curvature="0"
         style="clip-rule:evenodd;fill:url(#linearGradient10976);fill-rule:evenodd;stroke-width:0.01562486;image-rendering:optimizeQuality;shape-rendering:geometricPrecision;text-rendering:geometricPrecision"
         id="path7241"
         d="m 99.890171,115.98333 v 1.35937 0.56249 c 1.265609,0.35937 2.109359,0.73437 2.562479,1.12499 0.54687,0.5 0.85937,1.12499 0.92187,1.85936 -0.0312,0.40625 -0.14063,0.78124 -0.32813,1.12499 -0.21875,0.42187 -0.51562,0.78124 -0.85936,1.06249 -0.35938,0.28125 -0.73437,0.48437 -1.12499,0.60937 -0.32813,0.10937 -0.71875,0.1875 -1.171869,0.21875 v 0.56249 0.34375 c 0,0.3125 -0.249997,0.56249 -0.562495,0.56249 h -0.468745 c -0.312498,0 -0.562495,-0.24999 -0.562495,-0.56249 v -0.34375 -0.57812 c -0.562495,-0.0625 -1.015616,-0.15625 -1.374988,-0.29687 -0.437496,-0.15625 -0.796868,-0.39062 -1.109365,-0.67187 -0.312497,-0.28125 -0.54687,-0.57812 -0.718744,-0.90624 -0.07812,-0.17187 -0.156248,-0.35937 -0.218748,-0.54687 0.0625,-0.0625 0.156249,-0.10938 0.281248,-0.125 l 1.765609,-0.20312 c 0.468746,-0.10938 0.718743,0 0.718743,0.34374 0,0.1875 0.09375,0.375 0.234373,0.57812 0.109374,0.125 0.234373,0.26563 0.421872,0.375 v -0.5625 -1.8281 -0.57812 c -0.796868,-0.21875 -1.374988,-0.42187 -1.718735,-0.59375 -0.390622,-0.1875 -0.734368,-0.49999 -1.031241,-0.92186 -0.234373,-0.35938 -0.374996,-0.76562 -0.421871,-1.24999 0.0625,-0.71875 0.343747,-1.31249 0.859367,-1.81249 0.531246,-0.49999 1.312489,-0.81249 2.31248,-0.90624 v -0.21875 c 0,-0.31249 0.249997,-0.56249 0.562495,-0.56249 h 0.468745 c 0.312498,0 0.562495,0.25 0.562495,0.56249 v 0.21875 c 0.906239,0.0937 1.609359,0.32812 2.109359,0.71874 0.39062,0.3125 0.68749,0.6875 0.89061,1.15624 -0.0469,0.0469 -0.12499,0.0781 -0.23437,0.10938 l -1.81248,0.28125 c -0.39062,0.0625 -0.46875,-0.20313 -0.51562,-0.29688 -0.0781,-0.14062 -0.14063,-0.24999 -0.20313,-0.32812 -0.0625,-0.0625 -0.124995,-0.14062 -0.234369,-0.20312 z m 0,3.98434 v 0.5625 1.48436 0.57812 c 0.249999,-0.0937 0.453119,-0.21875 0.578119,-0.35937 0.1875,-0.20313 0.28125,-0.4375 0.28125,-0.6875 0,-0.0937 -0.0156,-0.1875 -0.0469,-0.28124 0.0312,-0.0937 0.0469,-0.1875 0.0469,-0.28125 0,-0.23437 -0.0781,-0.4375 -0.23437,-0.60937 -0.10938,-0.15625 -0.32813,-0.28125 -0.624999,-0.40625 z m -1.593735,-4.07809 v -0.57812 c -0.156249,0.0781 -0.265623,0.15625 -0.343747,0.25 -0.109374,0.14063 -0.171874,0.3125 -0.171874,0.51562 0,0.10938 0.01563,0.20313 0.04687,0.28125 -0.03125,0.0937 -0.04687,0.1875 -0.04687,0.28125 0,0.20312 0.0625,0.39062 0.187499,0.54687 0.0625,0.0937 0.187498,0.17187 0.328122,0.24999 v -0.56249 z"
         class="fil96" />
      <path
         style="clip-rule:evenodd;fill:#f7c600;fill-rule:nonzero;stroke-width:0.01562486;image-rendering:optimizeQuality;shape-rendering:geometricPrecision;text-rendering:geometricPrecision"
         inkscape:connector-curvature="0"
         id="path7243"
         d="m 103.35889,120.74892 c 0.0156,0.0469 0.0156,0.0937 0.0156,0.14062 -0.0312,0.40625 -0.14063,0.78124 -0.32813,1.12499 -0.21875,0.42187 -0.51562,0.78124 -0.85936,1.06249 -0.35938,0.28125 -0.73437,0.48437 -1.12499,0.60937 -0.32813,0.10937 -0.71875,0.1875 -1.171869,0.21875 v 0.56249 0.34375 c 0,0.3125 -0.249997,0.56249 -0.562495,0.56249 h -0.468745 c -0.312498,0 -0.562495,-0.24999 -0.562495,-0.56249 v -0.34375 -0.57812 c -0.562495,-0.0625 -1.015616,-0.15625 -1.374988,-0.29687 -0.437496,-0.15625 -0.796868,-0.39062 -1.109365,-0.67187 -0.312497,-0.28125 -0.54687,-0.57812 -0.718744,-0.90624 -0.04687,-0.0937 -0.07812,-0.17187 -0.109374,-0.26562 0.812493,0.0625 1.73436,0.0625 2.703101,0 0.04687,0.0937 0.109374,0.20312 0.187498,0.31249 0.109374,0.125 0.234373,0.26563 0.421872,0.375 v -0.5625 -0.17187 c 0.328122,-0.0312 0.656244,-0.0625 0.984366,-0.10937 0.203123,-0.0312 0.406246,-0.0469 0.609369,-0.0781 v 0.5 0.57812 c 0.249999,-0.0937 0.453119,-0.21875 0.578119,-0.35937 0.1875,-0.20313 0.28125,-0.4375 0.28125,-0.6875 0,-0.0625 0,-0.125 -0.0156,-0.17187 0.9375,-0.17187 1.82811,-0.39062 2.62498,-0.62499 z"
         class="fil97" />
      <path
         style="clip-rule:evenodd;fill:#fff71f;fill-rule:nonzero;stroke-width:0.01562486;image-rendering:optimizeQuality;shape-rendering:geometricPrecision;text-rendering:geometricPrecision"
         inkscape:connector-curvature="0"
         id="path7245"
         d="m 99.890171,115.98333 v 0.28125 c -0.203123,0.0312 -0.406246,0.0469 -0.609369,0.0781 -0.328122,0.0469 -0.656244,0.0937 -0.984366,0.14063 v -0.59375 -0.57812 c -0.156249,0.0781 -0.265623,0.15625 -0.343747,0.25 -0.109374,0.14063 -0.171874,0.3125 -0.171874,0.51562 0,0.10938 0.01563,0.20313 0.04687,0.28125 -0.01563,0.0781 -0.03125,0.14062 -0.04687,0.21875 -0.921867,0.15625 -1.781234,0.37499 -2.578102,0.60937 -0.03125,-0.15625 -0.0625,-0.3125 -0.07812,-0.48437 0.0625,-0.71875 0.343747,-1.31249 0.859367,-1.81249 0.531246,-0.49999 1.312489,-0.81249 2.31248,-0.90624 v -0.21875 c 0,-0.31249 0.249997,-0.56249 0.562495,-0.56249 h 0.468745 c 0.312498,0 0.562495,0.25 0.562495,0.56249 v 0.21875 c 0.906235,0.0937 1.609355,0.32812 2.109355,0.71874 0.39062,0.3125 0.68749,0.6875 0.89061,1.15624 -0.0469,0.0469 -0.12499,0.0781 -0.23437,0.10938 l -1.28124,0.20312 c -0.28124,0 -0.56249,0.0156 -0.84374,0.0469 -0.14062,-0.0781 -0.17187,-0.20313 -0.20312,-0.26563 -0.0781,-0.14062 -0.14063,-0.24999 -0.20313,-0.32812 -0.0625,-0.0625 -0.124991,-0.14062 -0.234365,-0.20312 z"
         class="fil98" />
      <g
         transform="matrix(0.26458333,0,0,0.26458333,168.27784,110.36558)"
         class="st1"
         id="g12637"
         style="opacity:0.2">
        <path
           class="st2"
           d="m 12,25 v 25 c 0,2.2 1.8,4 4,4 h 32 c 2.2,0 4,-1.8 4,-4 V 25 Z"
           id="path12635"
           inkscape:connector-curvature="0"
           style="fill:#231f20" />
      </g>
      <g
         transform="matrix(0.26458333,0,0,0.26458333,168.27784,110.36558)"
         id="g12641">
        <path
           class="st3"
           d="m 12,23 v 25 c 0,2.2 1.8,4 4,4 h 32 c 2.2,0 4,-1.8 4,-4 V 23 Z"
           id="path12639"
           inkscape:connector-curvature="0"
           style="fill:#ffffff" />
      </g>
      <g
         transform="matrix(0.26458333,0,0,0.26458333,168.27784,110.36558)"
         class="st1"
         id="g12645"
         style="opacity:0.2">
        <path
           class="st2"
           d="M 48,14 H 16 c -2.2,0 -4,1.8 -4,4 v 7 h 40 v -7 c 0,-2.2 -1.8,-4 -4,-4 z"
           id="path12643"
           inkscape:connector-curvature="0"
           style="fill:#231f20" />
      </g>
      <g
         transform="matrix(0.26458333,0,0,0.26458333,168.27784,110.36558)"
         id="g12649">
        <path
           class="st4"
           d="M 48,12 H 16 c -2.2,0 -4,1.8 -4,4 v 7 h 40 v -7 c 0,-2.2 -1.8,-4 -4,-4 z"
           id="path12647"
           inkscape:connector-curvature="0"
           style="fill:#c75c5c" />
      </g>
      <g
         transform="matrix(0.26458333,0,0,0.26458333,168.27784,110.36558)"
         id="g12653">
        <path
           class="st5"
           d="m 32,48 c -1.1,0 -2,-0.9 -2,-2 0,-5.5 1.8,-9.5 3.5,-12 H 27 c -1.1,0 -2,-0.9 -2,-2 0,-1.1 0.9,-2 2,-2 h 11 c 0.9,0 1.6,0.6 1.9,1.4 0.3,0.8 0,1.7 -0.7,2.2 C 39,33.8 34,37.5 34,46 c 0,1.1 -0.9,2 -2,2 z"
           id="path12651"
           inkscape:connector-curvature="0"
           style="fill:#4f5d73" />
      </g>
      <g
         transform="matrix(0.26458333,0,0,0.26458333,168.27784,110.36558)"
         class="st1"
         id="g12657"
         style="opacity:0.2">
        <path
           class="st2"
           d="m 20,21 c -1.1,0 -2,-0.9 -2,-2 v -7 c 0,-1.1 0.9,-2 2,-2 v 0 c 1.1,0 2,0.9 2,2 v 7 c 0,1.1 -0.9,2 -2,2 z"
           id="path12655"
           inkscape:connector-curvature="0"
           style="fill:#231f20" />
      </g>
      <g
         transform="matrix(0.26458333,0,0,0.26458333,168.27784,110.36558)"
         class="st1"
         id="g12661"
         style="opacity:0.2">
        <path
           class="st2"
           d="m 45,21 c -1.1,0 -2,-0.9 -2,-2 v -7 c 0,-1.1 0.9,-2 2,-2 v 0 c 1.1,0 2,0.9 2,2 v 7 c 0,1.1 -0.9,2 -2,2 z"
           id="path12659"
           inkscape:connector-curvature="0"
           style="fill:#231f20" />
      </g>
      <g
         transform="matrix(0.26458333,0,0,0.26458333,168.27784,110.36558)"
         id="g12665">
        <path
           class="st6"
           d="m 20,19 c -1.1,0 -2,-0.9 -2,-2 v -7 c 0,-1.1 0.9,-2 2,-2 v 0 c 1.1,0 2,0.9 2,2 v 7 c 0,1.1 -0.9,2 -2,2 z"
           id="path12663"
           inkscape:connector-curvature="0"
           style="fill:#e0e0d1" />
      </g>
      <g
         transform="matrix(0.26458333,0,0,0.26458333,168.27784,110.36558)"
         id="g12669">
        <path
           class="st6"
           d="m 45,19 c -1.1,0 -2,-0.9 -2,-2 v -7 c 0,-1.1 0.9,-2 2,-2 v 0 c 1.1,0 2,0.9 2,2 v 7 c 0,1.1 -0.9,2 -2,2 z"
           id="path12667"
           inkscape:connector-curvature="0"
           style="fill:#e0e0d1" />
      </g>
    </g>
  </g>
  <style
     id="style12629"
     type="text/css">
	.st0{fill:#77B3D4;}
	.st1{opacity:0.2;}
	.st2{fill:#231F20;}
	.st3{fill:#FFFFFF;}
	.st4{fill:#C75C5C;}
	.st5{fill:#4F5D73;}
	.st6{fill:#E0E0D1;}
</style>
</svg>
