<?xml version="1.0" encoding="UTF-8" standalone="no"?>
<!-- Created with Inkscape (http://www.inkscape.org/) -->

<svg
   xmlns:dc="http://purl.org/dc/elements/1.1/"
   xmlns:cc="http://creativecommons.org/ns#"
   xmlns:rdf="http://www.w3.org/1999/02/22-rdf-syntax-ns#"
   xmlns:svg="http://www.w3.org/2000/svg"
   xmlns="http://www.w3.org/2000/svg"
   xmlns:xlink="http://www.w3.org/1999/xlink"
   xmlns:sodipodi="http://sodipodi.sourceforge.net/DTD/sodipodi-0.dtd"
   xmlns:inkscape="http://www.inkscape.org/namespaces/inkscape"
   width="965"
   height="720"
   viewBox="0 0 255.32291 190.5"
   version="1.1"
   id="svg10310"
   sodipodi:docname="game-state-background.svg"
   inkscape:version="0.92.4 (5da689c313, 2019-01-14)">
  <defs
     id="defs10304">
    <linearGradient
       inkscape:collect="always"
       xlink:href="#id0"
       id="linearGradient10976"
       gradientUnits="userSpaceOnUse"
       x1="29675.883"
       y1="29632.828"
       x2="29675.883"
       y2="29125.064"
       gradientTransform="matrix(0.0130571,0,0,0.01869758,-288.35635,-430.0274)" />
    <linearGradient
       id="id0"
       gradientUnits="objectBoundingBox"
       x1="0.50001997"
       y1="0.88998598"
       x2="0.50001997"
       y2="0.109987">
      <stop
         offset="0"
         style="stop-color:#FFCC00"
         id="stop9" />
      <stop
         offset="1"
         style="stop-color:#FFF71F"
         id="stop11" />
    </linearGradient>
  </defs>
  <sodipodi:namedview
     id="base"
     pagecolor="#ffffff"
     bordercolor="#666666"
     borderopacity="1.0"
     inkscape:pageopacity="0.0"
     inkscape:pageshadow="2"
     inkscape:zoom="0.98994949"
     inkscape:cx="325.50129"
     inkscape:cy="343.71668"
     inkscape:document-units="mm"
     inkscape:current-layer="layer1"
     showgrid="false"
     units="px"
     inkscape:window-width="1878"
     inkscape:window-height="1016"
     inkscape:window-x="42"
     inkscape:window-y="27"
     inkscape:window-maximized="1" />
  <metadata
     id="metadata10307">
    <rdf:RDF>
      <cc:Work
         rdf:about="">
        <dc:format>image/svg+xml</dc:format>
        <dc:type
           rdf:resource="http://purl.org/dc/dcmitype/StillImage" />
        <dc:title></dc:title>
      </cc:Work>
    </rdf:RDF>
  </metadata>
  <g
     inkscape:label="Layer 1"
     inkscape:groupmode="layer"
     id="layer1"
     transform="translate(0,-106.49998)">
    <path
       class="fil1"
       d="M 15.944341,103.71809 H 245.96889 c 4.83203,0 8.85872,1.75329 8.85872,3.93516 v 23.14342 c 0,2.18187 -4.02669,3.93516 -8.85872,3.93516 H 15.944341 c -4.832026,0 -8.8587138,-1.75329 -8.8587138,-3.93516 v -23.14342 c 0,-2.18187 4.0266878,-3.93516 8.8587138,-3.93516 z"
       id="path7459"
       inkscape:connector-curvature="0"
       style="clip-rule:evenodd;fill:#000000;fill-opacity:0.10196102;fill-rule:evenodd;stroke-width:0.06262742;image-rendering:optimizeQuality;shape-rendering:geometricPrecision;text-rendering:geometricPrecision" />
    <path
       class="fil2"
       d="M 13.528328,102.47131 H 243.55288 c 4.83203,0 8.85871,1.79225 8.85871,3.93516 v 23.18238 c 0,2.14291 -4.02668,3.89619 -8.85871,3.89619 H 13.528328 c -4.8320256,0 -8.8587136,-1.75328 -8.8587136,-3.89619 v -23.18238 c 0,-2.14291 3.9260208,-3.93516 8.8587136,-3.93516 z"
       id="path7461"
       inkscape:connector-curvature="0"
       style="clip-rule:evenodd;fill:#e6e6e6;fill-rule:evenodd;stroke-width:0.06262742;image-rendering:optimizeQuality;shape-rendering:geometricPrecision;text-rendering:geometricPrecision" />
    <path
       class="fil3"
       d="M 13.528328,101.65311 H 243.55288 c 4.83203,0 8.85871,1.79225 8.85871,3.93516 v 23.18238 c 0,2.1429 -4.02668,3.89619 -8.85871,3.89619 H 13.528328 c -4.8320256,0 -8.8587136,-1.75329 -8.8587136,-3.89619 v -23.18238 c 0,-2.14291 3.9260208,-3.93516 8.8587136,-3.93516 z"
       id="path7463"
       inkscape:connector-curvature="0"
       style="clip-rule:evenodd;fill:#ffffff;fill-rule:evenodd;stroke-width:0.06262742;image-rendering:optimizeQuality;shape-rendering:geometricPrecision;text-rendering:geometricPrecision" />
    <path
       class="fil2"
       d="M 18.964357,104.30252 H 239.22419 c 4.53002,0 8.25471,1.6364 8.25471,3.66243 v 18.70175 c 0,2.02602 -3.72469,3.70139 -8.25471,3.70139 H 18.964357 c -4.530024,0 -8.254711,-1.67537 -8.254711,-3.70139 v -18.70175 c 0,-2.02603 3.724687,-3.66243 8.254711,-3.66243 z"
       id="path7465"
       inkscape:connector-curvature="0"
       style="clip-rule:evenodd;fill:#e6e6e6;fill-rule:evenodd;stroke-width:0.06262742;image-rendering:optimizeQuality;shape-rendering:geometricPrecision;text-rendering:geometricPrecision" />
    <path
       class="fil4"
       d="M 17.152347,103.79602 H 237.61352 c 4.53002,0 8.15404,1.67536 8.15404,3.66242 v 18.19525 c 0,2.02602 -3.62402,3.70138 -8.15404,3.70138 H 17.152347 c -4.530024,0 -8.2547102,-1.67536 -8.2547102,-3.70138 v -18.19525 c 0,-1.98706 3.6240192,-3.66242 8.2547102,-3.66242 z"
       id="path7467"
       inkscape:connector-curvature="0"
       style="clip-rule:evenodd;fill:#f1c383;fill-rule:evenodd;stroke-width:0.06262742;image-rendering:optimizeQuality;shape-rendering:geometricPrecision;text-rendering:geometricPrecision" />
    <path
       class="fil5"
       d="M 16.951013,102.86093 H 235.80151 c 4.53002,0 8.15404,1.59744 8.15404,3.5845 v 17.10431 c 0,1.98706 -3.62402,3.62346 -8.15404,3.62346 H 16.951013 c -4.429357,0 -8.0533762,-1.6364 -8.0533762,-3.62346 v -17.10431 c 0,-1.98706 3.6240192,-3.5845 8.0533762,-3.5845 z"
       id="path7469"
       inkscape:connector-curvature="0"
       style="clip-rule:evenodd;fill:#faeecc;fill-rule:evenodd;stroke-width:0.06262742;image-rendering:optimizeQuality;shape-rendering:geometricPrecision;text-rendering:geometricPrecision" />
    <g
       style="clip-rule:evenodd;fill-rule:evenodd;image-rendering:optimizeQuality;shape-rendering:geometricPrecision;text-rendering:geometricPrecision"
       id="g7471"
       transform="matrix(0.1006672,0,0,0.03896198,-3093.5648,-1271.4075)">
      <path
         class="fil6"
         d="m 30912,35284 c 716,0 1432,0 2148,0 44,0 80,41 80,92 0,138 0,277 0,416 0,50 -36,92 -80,92 -716,0 -1432,0 -2148,0 -43,0 -79,-42 -79,-92 0,-139 0,-278 0,-416 0,-51 35,-92 79,-92 z"
         id="path7473"
         inkscape:connector-curvature="0"
         style="fill:#faedc9" />
      <path
         class="fil7"
         d="m 30925,35296 c 708,0 1415,0 2122,0 44,0 79,41 79,91 0,131 0,262 0,394 0,49 -35,90 -79,90 -707,0 -1414,0 -2122,0 -43,0 -78,-41 -78,-90 0,-132 0,-263 0,-394 0,-50 35,-91 78,-91 z"
         id="path7475"
         inkscape:connector-curvature="0"
         style="fill:#f9ecc6" />
      <path
         class="fil8"
         d="m 30938,35309 c 699,0 1398,0 2096,0 43,0 78,40 78,89 0,124 0,248 0,371 0,50 -35,90 -78,90 -698,0 -1397,0 -2096,0 -42,0 -77,-40 -77,-90 0,-123 0,-247 0,-371 0,-49 35,-89 77,-89 z"
         id="path7477"
         inkscape:connector-curvature="0"
         style="fill:#f9ebc2" />
      <path
         class="fil9"
         d="m 30951,35321 c 690,0 1380,0 2070,0 42,0 77,40 77,88 0,117 0,233 0,349 0,49 -35,88 -77,88 -690,0 -1380,0 -2070,0 -42,0 -76,-39 -76,-88 0,-116 0,-232 0,-349 0,-48 34,-88 76,-88 z"
         id="path7479"
         inkscape:connector-curvature="0"
         style="fill:#f8eabf" />
      <path
         class="fil10"
         d="m 30964,35333 c 682,0 1363,0 2044,0 42,0 76,40 76,87 0,109 0,218 0,327 0,48 -34,87 -76,87 -681,0 -1362,0 -2044,0 -41,0 -75,-39 -75,-87 0,-109 0,-218 0,-327 0,-48 34,-87 75,-87 z"
         id="path7481"
         inkscape:connector-curvature="0"
         style="fill:#f8e9bc" />
      <path
         class="fil11"
         d="m 30977,35346 c 673,0 1346,0 2018,0 41,0 75,38 75,86 0,101 0,202 0,304 0,47 -34,86 -75,86 -672,0 -1345,0 -2018,0 -41,0 -74,-39 -74,-86 0,-102 0,-203 0,-304 0,-48 33,-86 74,-86 z"
         id="path7483"
         inkscape:connector-curvature="0"
         style="fill:#f7e8b9" />
      <path
         class="fil12"
         d="m 30991,35358 c 663,0 1327,0 1991,0 41,0 74,38 74,85 0,94 0,188 0,282 0,46 -33,84 -74,84 -664,0 -1328,0 -1991,0 -41,0 -74,-38 -74,-84 0,-94 0,-188 0,-282 0,-47 33,-85 74,-85 z"
         id="path7485"
         inkscape:connector-curvature="0"
         style="fill:#f7e7b6" />
      <path
         class="fil13"
         d="m 31004,35370 c 655,0 1310,0 1965,0 40,0 73,38 73,84 0,86 0,173 0,259 0,46 -33,84 -73,84 -655,0 -1310,0 -1965,0 -40,0 -73,-38 -73,-84 0,-86 0,-173 0,-259 0,-46 32,-84 73,-84 z"
         id="path7487"
         inkscape:connector-curvature="0"
         style="fill:#f6e6b3" />
      <path
         class="fil14"
         d="m 31017,35383 c 646,0 1293,0 1939,0 40,0 72,37 72,82 0,79 0,158 0,237 0,45 -32,83 -72,83 -646,0 -1293,0 -1939,0 -40,0 -72,-37 -72,-83 0,-79 0,-158 0,-237 0,-45 32,-82 72,-82 z"
         id="path7489"
         inkscape:connector-curvature="0"
         style="fill:#f6e5af" />
      <path
         class="fil15"
         d="m 31030,35395 c 637,0 1275,0 1913,0 39,0 71,37 71,82 0,71 0,142 0,214 0,45 -32,81 -71,81 -638,0 -1276,0 -1913,0 -39,0 -71,-36 -71,-81 0,-72 0,-143 0,-214 0,-45 32,-82 71,-82 z"
         id="path7491"
         inkscape:connector-curvature="0"
         style="fill:#f5e4ac" />
    </g>
    <path
       class="fil16"
       d="M 31.44709,108.1208 H 221.4061 c 3.82535,0 7.0467,1.44159 7.0467,3.15592 v 7.4807 c 0,1.71432 -3.22135,3.11695 -7.0467,3.11695 H 31.44709 c -3.926021,0 -7.046704,-1.40263 -7.046704,-3.11695 v -7.4807 c 0,-1.71433 3.120683,-3.15592 7.046704,-3.15592 z"
       id="path7493"
       inkscape:connector-curvature="0"
       style="clip-rule:evenodd;fill:#f5e3a9;fill-rule:evenodd;stroke-width:0.06262742;image-rendering:optimizeQuality;shape-rendering:geometricPrecision;text-rendering:geometricPrecision" />
    <path
       class="fil82"
       d="m 16.507377,113.12398 h 3.656217 c 0.406246,0 0.765618,0.17187 1.031241,0.4375 0.265623,0.26562 0.437496,0.62499 0.437496,1.03124 v 2.0781 h 2.078106 c 0.406247,0 0.765618,0.15625 1.031241,0.42187 0.265623,0.26563 0.437496,0.64062 0.437496,1.04687 v 3.64059 c 0,0.40625 -0.171873,0.78124 -0.437496,1.04687 -0.265623,0.26562 -0.624994,0.42187 -1.031241,0.42187 h -2.078106 v 2.0781 c 0,0.40625 -0.171873,0.76562 -0.437496,1.03125 -0.265623,0.26562 -0.624995,0.43749 -1.031241,0.43749 h -3.656217 c -0.390622,0 -0.765618,-0.17187 -1.031241,-0.43749 -0.265622,-0.26563 -0.421871,-0.625 -0.421871,-1.03125 v -2.0781 h -2.078106 c -0.406247,0 -0.781243,-0.15625 -1.046866,-0.42187 -0.265623,-0.26563 -0.421871,-0.64062 -0.421871,-1.04687 v -3.64059 c 0,-0.40625 0.156248,-0.78124 0.421871,-1.04687 0.265623,-0.26562 0.640619,-0.42187 1.046866,-0.42187 h 2.078106 v -2.0781 c 0,-0.40625 0.156249,-0.76562 0.421871,-1.03124 0.265623,-0.26563 0.640619,-0.4375 1.031241,-0.4375 z m 3.265596,1.87498 h -2.85935 v 2.60935 0.92187 H 15.976132 13.36678 v 2.85935 h 2.609352 0.937491 v 0.93749 2.59373 h 2.85935 v -2.59373 -0.93749 h 0.921866 2.609352 v -2.85935 h -2.609352 -0.921866 v -0.92187 z"
       id="path3949"
       inkscape:connector-curvature="0"
       style="clip-rule:evenodd;fill:#000000;fill-opacity:0.10196102;fill-rule:nonzero;stroke-width:0.01562486;image-rendering:optimizeQuality;shape-rendering:geometricPrecision;text-rendering:geometricPrecision" />
    <path
       class="fil88"
       d="m 16.507377,112.49898 h 3.656217 c 0.406246,0 0.765618,0.17188 1.031241,0.4375 0.265623,0.26562 0.437496,0.625 0.437496,1.03124 v 2.07811 h 2.078106 c 0.406247,0 0.765618,0.15625 1.031241,0.42187 0.265623,0.26562 0.437496,0.64062 0.437496,1.04686 v 3.6406 c 0,0.40624 -0.171873,0.78124 -0.437496,1.04686 -0.265623,0.26563 -0.624994,0.42187 -1.031241,0.42187 h -2.078106 v 2.07811 c 0,0.40625 -0.171873,0.76562 -0.437496,1.03124 -0.265623,0.26562 -0.624995,0.4375 -1.031241,0.4375 h -3.656217 c -0.390622,0 -0.765618,-0.17188 -1.031241,-0.4375 -0.265622,-0.26562 -0.421871,-0.62499 -0.421871,-1.03124 v -2.07811 h -2.078106 c -0.406247,0 -0.781243,-0.15624 -1.046866,-0.42187 -0.265623,-0.26562 -0.421871,-0.64062 -0.421871,-1.04686 v -3.6406 c 0,-0.40624 0.156248,-0.78124 0.421871,-1.04686 0.265623,-0.26562 0.640619,-0.42187 1.046866,-0.42187 h 2.078106 v -2.07811 c 0,-0.40624 0.156249,-0.76562 0.421871,-1.03124 0.265623,-0.26562 0.640619,-0.4375 1.031241,-0.4375 z m 3.265596,1.87499 h -2.85935 v 2.60935 0.92187 H 15.976132 13.36678 v 2.85935 h 2.609352 0.937491 v 0.93749 2.60935 h 2.85935 v -2.60935 -0.93749 h 0.921866 2.609352 v -2.85935 h -2.609352 -0.921866 v -0.92187 z"
       id="path3951"
       inkscape:connector-curvature="0"
       style="clip-rule:evenodd;fill:#e6e6e6;fill-rule:nonzero;stroke-width:0.01562486;image-rendering:optimizeQuality;shape-rendering:geometricPrecision;text-rendering:geometricPrecision" />
    <path
       class="fil54"
       d="m 16.507377,112.49898 h 3.656217 c 0.406246,0 0.765618,0.17188 1.031241,0.4375 0.265623,0.25 0.437496,0.60937 0.437496,1.01562 v 0.0156 1.51561 0.5625 h 2.078106 c 0.406247,0 0.765618,0.15625 1.031241,0.42187 0.265623,0.26562 0.421871,0.62499 0.437496,1.01562 v 0.0312 3.10935 c -0.01563,0.39062 -0.171873,0.75 -0.437496,1.01562 -0.265623,0.26562 -0.624994,0.43749 -1.031241,0.43749 h -2.078106 v 0.54687 1.54687 c 0,0.39062 -0.171873,0.74999 -0.437496,1.01561 -0.265623,0.26562 -0.624995,0.42187 -1.031241,0.42187 h -3.656217 c -0.390622,0 -0.765618,-0.15625 -1.031241,-0.42187 -0.265622,-0.26562 -0.421871,-0.62499 -0.421871,-1.01561 v -1.54687 -0.54687 h -2.078106 c -0.406247,0 -0.781243,-0.17187 -1.046866,-0.43749 -0.249998,-0.26562 -0.421871,-0.625 -0.421871,-1.01562 v -3.10935 -0.0312 c 0,-0.39063 0.171873,-0.75 0.421871,-1.01562 0.265623,-0.26562 0.640619,-0.42187 1.046866,-0.42187 h 2.078106 v -0.5625 -1.51561 -0.0156 c 0,-0.40625 0.156249,-0.76562 0.421871,-1.01562 0.265623,-0.26562 0.640619,-0.4375 1.031241,-0.4375 z m 3.265596,1.31249 h -2.85935 v 0.5625 2.60935 0.375 H 15.976132 13.36678 v 0.54687 2.29685 0.5625 h 2.609352 0.937491 v 0.93749 2.04685 0.5625 h 2.85935 v -0.5625 -2.04685 -0.93749 h 0.921866 2.609352 v -0.5625 -2.29685 -0.54687 h -2.609352 -0.921866 v -0.375 -2.60935 z"
       id="path3953"
       inkscape:connector-curvature="0"
       style="clip-rule:evenodd;fill:#ffffff;fill-rule:nonzero;stroke-width:0.01562486;image-rendering:optimizeQuality;shape-rendering:geometricPrecision;text-rendering:geometricPrecision" />
    <path
       class="fil89"
       d="m 16.507377,113.2021 h 3.656217 c 0.296872,0 0.531245,0.23438 0.531245,0.53125 v 2.99997 h 3.015598 c 0.296873,0 0.531246,0.25 0.531246,0.54687 v 3.64059 c 0,0.29688 -0.234373,0.53125 -0.531246,0.53125 h -3.015598 v 3.0156 c 0,0.29687 -0.234373,0.53124 -0.531245,0.53124 h -3.656217 c -0.281248,0 -0.531245,-0.23437 -0.531245,-0.53124 v -3.0156 h -2.999973 c -0.296873,0 -0.531246,-0.23437 -0.531246,-0.53125 v -3.64059 c 0,-0.29687 0.234373,-0.54687 0.531246,-0.54687 h 2.999973 v -2.99997 c 0,-0.29687 0.249997,-0.53125 0.531245,-0.53125 z"
       id="path3955"
       inkscape:connector-curvature="0"
       style="clip-rule:evenodd;fill:#be005b;fill-rule:evenodd;stroke-width:0.01562486;image-rendering:optimizeQuality;shape-rendering:geometricPrecision;text-rendering:geometricPrecision" />
    <path
       class="fil90"
       d="m 16.507377,113.2021 h 3.656217 c 0.296872,0 0.531245,0.23438 0.531245,0.53125 v 2.24998 0.74999 h 3.015598 c 0.296873,0 0.531246,0.25 0.531246,0.54687 v 2.8906 c 0,0.28125 -0.234373,0.53125 -0.531246,0.53125 h -3.015598 v 0.74999 2.24998 c 0,0.29687 -0.234373,0.53124 -0.531245,0.53124 h -3.656217 c -0.281248,0 -0.531245,-0.23437 -0.531245,-0.53124 v -2.24998 -0.74999 h -2.999973 c -0.296873,0 -0.531246,-0.25 -0.531246,-0.53125 v -2.8906 c 0,-0.29687 0.234373,-0.54687 0.531246,-0.54687 h 2.999973 v -0.74999 -2.24998 c 0,-0.29687 0.249997,-0.53125 0.531245,-0.53125 z"
       id="path3957"
       inkscape:connector-curvature="0"
       style="clip-rule:evenodd;fill:#ff5dab;fill-rule:evenodd;stroke-width:0.01562486;image-rendering:optimizeQuality;shape-rendering:geometricPrecision;text-rendering:geometricPrecision" />
    <path
       class="fil91"
       d="m 16.507377,113.2021 h 3.656217 c 0.296872,0 0.531245,0.23438 0.531245,0.53125 v 2.24998 0.57812 0.17187 h 3.015598 c 0.296873,0 0.531246,0.25 0.531246,0.54687 v 2.7031 c 0,0.29688 -0.234373,0.54687 -0.531246,0.54687 h -3.015598 v 0.17188 0.74999 2.07811 c 0,0.29687 -0.234373,0.53124 -0.531245,0.53124 h -3.656217 c -0.281248,0 -0.531245,-0.23437 -0.531245,-0.53124 v -2.07811 -0.74999 -0.17188 h -2.999973 c -0.296873,0 -0.531246,-0.24999 -0.531246,-0.54687 v -2.7031 c 0,-0.29687 0.234373,-0.54687 0.531246,-0.54687 h 2.999973 v -0.17187 -0.57812 -2.24998 c 0,-0.29687 0.249997,-0.53125 0.531245,-0.53125 z"
       id="path3959"
       inkscape:connector-curvature="0"
       style="clip-rule:evenodd;fill:#ff208f;fill-rule:evenodd;stroke-width:0.01562486;image-rendering:optimizeQuality;shape-rendering:geometricPrecision;text-rendering:geometricPrecision" />
    <path
       class="fil92"
       d="m 24.241683,117.62394 v 2.35935 c 0,0.29688 -0.234373,0.54687 -0.531246,0.54687 h -3.015598 v 0.17188 0.74999 2.07811 c 0,0.29687 -0.234373,0.53124 -0.531245,0.53124 h -3.656217 c -0.281248,0 -0.531245,-0.23437 -0.531245,-0.53124 v -1.14062 c 0.312497,-0.14062 0.624994,-0.28125 0.937491,-0.42187 0.718744,-0.32812 1.484362,-0.70312 2.24998,-1.10937 1.578111,-0.84374 2.984348,-1.71873 4.140588,-2.53122 0.343747,-0.25 0.656244,-0.46875 0.937492,-0.70312 z"
       id="path3961"
       inkscape:connector-curvature="0"
       style="clip-rule:evenodd;fill:#fe007a;fill-rule:evenodd;stroke-width:0.01562486;image-rendering:optimizeQuality;shape-rendering:geometricPrecision;text-rendering:geometricPrecision" />
    <path
       class="fil93"
       d="m 12.444913,119.98329 c 0,0.53125 0,0.76562 0,0 v -2.7031 c 0,-0.29687 0.234373,-0.54687 0.531246,-0.54687 h 2.999973 v -2.99997 c 0,-0.29687 0.249997,-0.53125 0.531245,-0.53125 h 3.656217 c 0.296872,0 0.531245,0.23438 0.531245,0.53125 v 2.2656 c -0.296872,0.14063 -0.609369,0.26563 -0.921866,0.42187 -0.765619,0.34375 -1.546862,0.73437 -2.359354,1.15624 -0.171874,0.0937 -0.328122,0.1875 -0.499996,0.28125 -0.03125,0.0156 -0.07812,0.0312 -0.109374,0.0469 -1.281238,0.71874 -2.453103,1.43748 -3.437469,2.1406 -0.203123,0.14063 -0.406246,0.29687 -0.60937,0.4375 -0.187498,-0.0781 -0.312497,-0.28125 -0.312497,-0.5 z"
       id="path3963"
       inkscape:connector-curvature="0"
       style="clip-rule:evenodd;fill:#ff3d9a;fill-rule:evenodd;stroke-width:0.01562486;image-rendering:optimizeQuality;shape-rendering:geometricPrecision;text-rendering:geometricPrecision" />
    <path
       class="fil82"
       d="m 102.7964,118.37394 -0.76562,0.125 c 0.43749,0.20312 0.79686,0.42187 1.06249,0.65624 l 0.0156,0.0156 c 0.42187,0.375 0.73437,0.8125 0.95312,1.29687 v 0 c 0.20312,0.48437 0.3125,1.01561 0.3125,1.57811 0,0.32812 -0.0312,0.65624 -0.10938,0.96874 -0.0781,0.3125 -0.1875,0.62499 -0.34374,0.90624 v 0 c -0.15625,0.26562 -0.3125,0.51562 -0.5,0.73437 -0.1875,0.23437 -0.39062,0.4375 -0.60937,0.62499 -0.23437,0.1875 -0.46875,0.34375 -0.70312,0.46875 -0.23437,0.125 -0.48437,0.23437 -0.74999,0.32812 v 0 c -0.14063,0.0469 -0.3125,0.0937 -0.46875,0.125 v 0.0469 c 0,0.43749 -0.1875,0.82811 -0.46874,1.09374 -0.26563,0.28124 -0.656248,0.46874 -1.093744,0.46874 h -0.468745 c -0.421872,0 -0.812493,-0.1875 -1.093741,-0.46874 -0.281247,-0.26563 -0.453121,-0.65625 -0.453121,-1.09374 v -0.0781 c -0.265622,-0.0625 -0.51562,-0.125 -0.749993,-0.21875 -0.265623,-0.0937 -0.51562,-0.21874 -0.749993,-0.35937 -0.234373,-0.14062 -0.468746,-0.3125 -0.671869,-0.49999 v 0 c -0.203123,-0.1875 -0.374997,-0.375 -0.515621,-0.5625 v 0 c -0.156248,-0.20312 -0.296872,-0.40625 -0.406246,-0.62499 v 0 c -0.0625,-0.125 -0.124999,-0.26563 -0.171873,-0.39062 v -0.0156 c -0.0625,-0.15625 -0.09375,-0.25 -0.124999,-0.34375 v 0 c -0.109374,-0.32812 -0.171874,-0.65624 -0.04687,-1.03124 v 0 c 0.156249,-0.43749 0.484371,-0.76562 1.109365,-0.87499 l 0.0625,-0.0156 0.937491,-0.10938 c -0.218748,-0.125 -0.421871,-0.28125 -0.624994,-0.45312 -0.218748,-0.20312 -0.437496,-0.4375 -0.624995,-0.71874 -0.203123,-0.29688 -0.359371,-0.64062 -0.45312,-0.99999 -0.109374,-0.34375 -0.156249,-0.71875 -0.156249,-1.10937 0,-0.53124 0.109374,-1.04686 0.296872,-1.51561 0.203123,-0.46875 0.499996,-0.90624 0.890617,-1.26561 0.359372,-0.35938 0.781243,-0.625 1.296864,-0.82812 0.249997,-0.0937 0.531245,-0.1875 0.843742,-0.25 0.07812,-0.15625 0.187498,-0.3125 0.312497,-0.45312 0.281248,-0.26562 0.671869,-0.45312 1.093741,-0.45312 h 0.468745 c 0.437496,0 0.828119,0.1875 1.093749,0.45312 0.14062,0.14062 0.24999,0.29687 0.32812,0.46875 0.23437,0.0469 0.45312,0.10937 0.67187,0.17187 0.45312,0.15625 0.84374,0.35937 1.18749,0.62499 0.28123,0.21875 0.53123,0.46875 0.73437,0.75 0.20311,0.28124 0.37498,0.57812 0.49998,0.90624 0.0469,0.0937 0.0781,0.20312 0.0937,0.29687 v 0.0156 c 0.0625,0.28124 0.0469,0.57812 -0.0937,0.84374 v 0 c -0.125,0.29687 -0.35937,0.53124 -0.70312,0.67187 v 0 c -0.0937,0.0312 -0.1875,0.0625 -0.29686,0.0937 z"
       id="path7231"
       inkscape:connector-curvature="0"
       style="clip-rule:evenodd;fill:#000000;fill-opacity:0.10196102;fill-rule:nonzero;stroke-width:0.01562486;image-rendering:optimizeQuality;shape-rendering:geometricPrecision;text-rendering:geometricPrecision" />
    <path
       class="fil88"
       d="m 102.7964,117.79582 -0.76562,0.125 c 0.43749,0.20312 0.79686,0.42187 1.06249,0.65624 l 0.0156,0.0156 c 0.42187,0.375 0.73437,0.8125 0.95312,1.29687 v 0 c 0.20312,0.48437 0.3125,1.01561 0.3125,1.57811 0,0.32812 -0.0312,0.65624 -0.10938,0.96874 -0.0781,0.3125 -0.1875,0.62499 -0.34374,0.90624 v 0 c -0.15625,0.26562 -0.3125,0.51562 -0.5,0.73437 -0.1875,0.23437 -0.39062,0.4375 -0.60937,0.62499 -0.23437,0.1875 -0.46875,0.34375 -0.70312,0.46875 -0.23437,0.125 -0.48437,0.23437 -0.74999,0.32812 v 0 c -0.14063,0.0469 -0.3125,0.0937 -0.46875,0.125 v 0.0469 c 0,0.43749 -0.1875,0.81249 -0.46874,1.09374 -0.26563,0.28124 -0.656248,0.46874 -1.093744,0.46874 h -0.468745 c -0.421872,0 -0.812493,-0.1875 -1.093741,-0.46874 -0.281247,-0.28125 -0.453121,-0.65625 -0.453121,-1.09374 v -0.0781 c -0.265622,-0.0625 -0.51562,-0.125 -0.749993,-0.21875 -0.265623,-0.10937 -0.51562,-0.21874 -0.749993,-0.35937 -0.234373,-0.14062 -0.468746,-0.3125 -0.671869,-0.49999 v 0 c -0.203123,-0.1875 -0.374997,-0.375 -0.515621,-0.5625 v 0 c -0.156248,-0.20312 -0.296872,-0.40625 -0.406246,-0.64062 v 0 c -0.0625,-0.10937 -0.124999,-0.25 -0.171873,-0.37499 v -0.0156 c -0.0625,-0.15625 -0.09375,-0.25 -0.124999,-0.34375 v 0 c -0.109374,-0.32812 -0.171874,-0.65624 -0.04687,-1.03124 v 0 c 0.156249,-0.43749 0.484371,-0.76562 1.109365,-0.87499 l 0.0625,-0.0156 0.937491,-0.10938 c -0.218748,-0.125 -0.421871,-0.28125 -0.624994,-0.45312 -0.218748,-0.20312 -0.437496,-0.4375 -0.624995,-0.71874 -0.203123,-0.29688 -0.359371,-0.64062 -0.45312,-0.99999 -0.109374,-0.34375 -0.156249,-0.71875 -0.156249,-1.10937 0,-0.53124 0.109374,-1.04686 0.296872,-1.51561 0.203123,-0.46875 0.499996,-0.90624 0.890617,-1.26561 0.359372,-0.35938 0.781243,-0.625 1.296864,-0.82812 0.249997,-0.0937 0.531245,-0.1875 0.843742,-0.25 0.07812,-0.15625 0.187498,-0.3125 0.312497,-0.45312 0.281248,-0.28125 0.671869,-0.45312 1.093741,-0.45312 h 0.468745 c 0.437496,0 0.828119,0.17187 1.093749,0.45312 0.14062,0.14062 0.24999,0.29687 0.32812,0.46875 0.23437,0.0469 0.45312,0.0937 0.67187,0.17187 0.45312,0.15625 0.84374,0.35937 1.18749,0.62499 0.28123,0.21875 0.53123,0.46875 0.73437,0.75 0.20311,0.28124 0.37498,0.57812 0.49998,0.90624 0.0469,0.0937 0.0781,0.20312 0.0937,0.29687 v 0.0156 c 0.0625,0.28124 0.0469,0.57812 -0.0937,0.84374 v 0 c -0.125,0.29687 -0.35937,0.53124 -0.70312,0.67187 v 0 c -0.0937,0.0312 -0.1875,0.0625 -0.29686,0.0937 z"
       id="path7233"
       inkscape:connector-curvature="0"
       style="clip-rule:evenodd;fill:#e6e6e6;fill-rule:nonzero;stroke-width:0.01562486;image-rendering:optimizeQuality;shape-rendering:geometricPrecision;text-rendering:geometricPrecision" />
    <path
       class="fil54"
       d="m 102.03078,117.92082 c 1.39061,0.65624 2.2656,1.7656 2.34373,3.32809 -0.0625,1.18749 -0.65625,2.28123 -1.56249,3.0156 -0.59374,0.46874 -1.20311,0.76562 -1.92186,0.92187 v 0.0625 c 0,0.42188 -0.1875,0.8125 -0.46874,1.09374 -0.624998,0.625 -2.031235,0.625 -2.65623,0 -0.281247,-0.28124 -0.453121,-0.67186 -0.453121,-1.09374 v -0.0937 c -0.531245,-0.10938 -1.046865,-0.29688 -1.499986,-0.57812 -0.937492,-0.5625 -1.828109,-1.70311 -1.984357,-2.81248 0.171873,-1.10936 1.249988,-1.10936 2.15623,-1.21874 0.687494,-0.0469 -0.453121,-0.73437 -0.624994,-0.87499 -0.499996,-0.46875 -0.890617,-1.06249 -1.078115,-1.71873 -0.07813,-0.28125 -0.124999,-0.57812 -0.140624,-0.89062 0.01563,-0.46875 0.109374,-0.90624 0.281247,-1.31249 0.203123,-0.46875 0.499996,-0.90624 0.890617,-1.26561 0.359372,-0.35938 0.781243,-0.625 1.296864,-0.82812 0.249997,-0.0937 0.531245,-0.1875 0.843742,-0.25 0.07812,-0.15625 0.187498,-0.3125 0.312497,-0.45312 0.281248,-0.28125 0.671869,-0.45312 1.093741,-0.45312 h 0.468745 c 0.437496,0 0.828114,0.17187 1.093744,0.45312 0.14062,0.14062 0.24999,0.29687 0.32812,0.46875 0.23437,0.0469 0.45312,0.0937 0.67187,0.17187 0.45312,0.15625 0.84374,0.35937 1.18749,0.62499 0.28124,0.21875 0.53124,0.46875 0.73437,0.75 0.20312,0.28124 0.37499,0.57812 0.49999,0.90624 0.0469,0.0937 0.0781,0.20312 0.0937,0.29687 v 0.0156 l 0.0156,0.0781 c -0.15624,1.01562 -1.06249,1.09374 -1.92185,1.21874 -0.39062,0.0781 -0.46875,0.17187 0,0.4375 z"
       id="path7235"
       inkscape:connector-curvature="0"
       style="clip-rule:evenodd;fill:#ffffff;fill-rule:nonzero;stroke-width:0.01562486;image-rendering:optimizeQuality;shape-rendering:geometricPrecision;text-rendering:geometricPrecision" />
    <path
       class="fil94"
       d="m 102.65577,116.62395 -1.81248,0.28125 c -0.39062,0.0781 -0.46875,-0.1875 -0.51562,-0.29687 -0.0781,-0.14063 -0.14063,-0.25 -0.20313,-0.32812 -0.0625,-0.0625 -0.124995,-0.14063 -0.234369,-0.20313 v 1.92186 c 1.265609,0.35937 2.109359,0.73437 2.562479,1.12499 0.62499,0.56249 0.93749,1.28124 0.93749,2.14061 0,0.51562 -0.10937,0.98436 -0.34375,1.40623 -0.21875,0.42187 -0.51562,0.78125 -0.85936,1.06249 -0.35938,0.28125 -0.73437,0.5 -1.12499,0.625 -0.32813,0.10937 -0.71875,0.17187 -1.171869,0.20312 v 0.90624 c 0,0.3125 -0.249997,0.5625 -0.562495,0.5625 h -0.468745 c -0.312498,0 -0.562495,-0.25 -0.562495,-0.5625 v -0.92186 c -0.562495,-0.0625 -1.015616,-0.15625 -1.374988,-0.29688 -0.437496,-0.15624 -0.796868,-0.37499 -1.109365,-0.65624 -0.312497,-0.29687 -0.54687,-0.59375 -0.718744,-0.92187 -0.09375,-0.1875 -0.171873,-0.39062 -0.249997,-0.60937 -0.09375,-0.29687 -0.109375,-0.56249 0.312497,-0.62499 l 1.765609,-0.20312 c 0.468746,-0.10938 0.718743,0 0.718743,0.34374 0,0.1875 0.09375,0.375 0.234373,0.57812 0.109374,0.125 0.234373,0.25 0.421872,0.375 v -2.3906 c -0.796868,-0.23438 -1.374988,-0.4375 -1.718735,-0.60937 -0.390622,-0.1875 -0.734368,-0.5 -1.031241,-0.92187 -0.281247,-0.42187 -0.437496,-0.93749 -0.437496,-1.53124 0,-0.84374 0.296872,-1.53123 0.874992,-2.09373 0.531246,-0.51562 1.312489,-0.81249 2.31248,-0.90624 v -0.21875 c 0,-0.3125 0.249997,-0.56249 0.562495,-0.56249 h 0.468745 c 0.312498,0 0.562495,0.24999 0.562495,0.56249 v 0.21875 c 0.906239,0.0937 1.609359,0.32812 2.109359,0.71874 0.42187,0.32813 0.73437,0.73437 0.93749,1.24999 0.10937,0.26562 0.0625,0.51562 -0.28125,0.57812 z m -2.765599,3.99997 v 2.04685 c 0.249999,-0.0781 0.453119,-0.20312 0.578119,-0.34374 0.1875,-0.20313 0.28125,-0.4375 0.28125,-0.6875 0,-0.21875 -0.0781,-0.42187 -0.23437,-0.60937 -0.10938,-0.14062 -0.32813,-0.28124 -0.624999,-0.40624 z m -1.593735,-3.09373 v -1.54686 c -0.156249,0.0625 -0.265623,0.15625 -0.343747,0.25 -0.109374,0.14062 -0.171874,0.3125 -0.171874,0.5 0,0.20312 0.0625,0.39062 0.187499,0.53124 0.0625,0.10938 0.187498,0.1875 0.328122,0.26562 z"
       id="path7237"
       inkscape:connector-curvature="0"
       style="clip-rule:evenodd;fill:#dcb000;fill-rule:nonzero;stroke-width:0.01562486;image-rendering:optimizeQuality;shape-rendering:geometricPrecision;text-rendering:geometricPrecision" />
    <path
       class="fil95"
       d="m 99.890171,116.07708 v 1.35936 0.5625 c 1.265609,0.35937 2.109359,0.73437 2.562479,1.12499 0.54687,0.5 0.85937,1.12499 0.92187,1.85936 -0.0312,0.40624 -0.14063,0.76562 -0.32813,1.10936 -0.21875,0.4375 -0.51562,0.78125 -0.85936,1.07812 -0.35938,0.28125 -0.73437,0.48437 -1.12499,0.60937 -0.32813,0.10937 -0.71875,0.1875 -1.171869,0.21875 v 0.56249 0.34375 c 0,0.31249 -0.249997,0.56249 -0.562495,0.56249 h -0.468745 c -0.312498,0 -0.562495,-0.25 -0.562495,-0.56249 v -0.35937 -0.5625 c -0.562495,-0.0625 -1.015616,-0.15625 -1.374988,-0.29687 -0.437496,-0.15625 -0.796868,-0.39062 -1.109365,-0.67187 -0.312497,-0.28125 -0.54687,-0.59374 -0.718744,-0.92187 -0.07812,-0.15625 -0.156248,-0.34374 -0.218748,-0.53124 0.0625,-0.0625 0.156249,-0.10938 0.281248,-0.125 l 1.765609,-0.20312 c 0.468746,-0.10938 0.718743,0 0.718743,0.34374 0,0.1875 0.09375,0.375 0.234373,0.57812 0.109374,0.125 0.234373,0.25 0.421872,0.375 v -0.57812 -1.81248 -0.57812 c -0.796868,-0.21875 -1.374988,-0.42188 -1.718735,-0.59375 -0.390622,-0.1875 -0.734368,-0.49999 -1.031241,-0.92187 -0.234373,-0.35937 -0.374996,-0.78124 -0.421871,-1.24998 0.0625,-0.71875 0.343747,-1.31249 0.859367,-1.81249 0.531246,-0.51562 1.312489,-0.81249 2.31248,-0.90624 v -0.21875 c 0,-0.3125 0.249997,-0.56249 0.562495,-0.56249 h 0.468745 c 0.312498,0 0.562495,0.24999 0.562495,0.56249 v 0.21875 c 0.906239,0.0937 1.609359,0.32812 2.109359,0.71874 0.39062,0.29688 0.68749,0.6875 0.89061,1.14062 -0.0469,0.0625 -0.12499,0.0937 -0.23437,0.125 l -1.81248,0.28124 c -0.39062,0.0625 -0.46875,-0.20312 -0.51562,-0.29687 -0.0781,-0.14062 -0.14063,-0.25 -0.20313,-0.32812 -0.0625,-0.0781 -0.124995,-0.14062 -0.234369,-0.20312 z m 0,3.98434 v 0.5625 1.48436 0.56249 c 0.249999,-0.0781 0.453119,-0.20312 0.578119,-0.34374 0.1875,-0.20313 0.28125,-0.4375 0.28125,-0.6875 0,-0.0937 -0.0156,-0.1875 -0.0469,-0.28125 0.0312,-0.0937 0.0469,-0.18749 0.0469,-0.29687 0,-0.21875 -0.0781,-0.42187 -0.23437,-0.60937 -0.10938,-0.14062 -0.32813,-0.26562 -0.624999,-0.39062 z m -1.593735,-4.07809 v -0.57812 c -0.156249,0.0781 -0.265623,0.15625 -0.343747,0.25 -0.109374,0.14062 -0.171874,0.3125 -0.171874,0.51562 0,0.0937 0.01563,0.20312 0.04687,0.28125 -0.03125,0.0937 -0.04687,0.1875 -0.04687,0.28125 0,0.20312 0.0625,0.39062 0.187499,0.53124 0.0625,0.10938 0.187498,0.1875 0.328122,0.26562 v -0.56249 z"
       id="path7239"
       inkscape:connector-curvature="0"
       style="clip-rule:evenodd;fill:#fef500;fill-rule:nonzero;stroke-width:0.01562486;image-rendering:optimizeQuality;shape-rendering:geometricPrecision;text-rendering:geometricPrecision" />
    <path
       class="fil96"
       d="m 99.890171,115.98333 v 1.35937 0.56249 c 1.265609,0.35937 2.109359,0.73437 2.562479,1.12499 0.54687,0.5 0.85937,1.12499 0.92187,1.85936 -0.0312,0.40625 -0.14063,0.78124 -0.32813,1.12499 -0.21875,0.42187 -0.51562,0.78124 -0.85936,1.06249 -0.35938,0.28125 -0.73437,0.48437 -1.12499,0.60937 -0.32813,0.10937 -0.71875,0.1875 -1.171869,0.21875 v 0.56249 0.34375 c 0,0.3125 -0.249997,0.56249 -0.562495,0.56249 h -0.468745 c -0.312498,0 -0.562495,-0.24999 -0.562495,-0.56249 v -0.34375 -0.57812 c -0.562495,-0.0625 -1.015616,-0.15625 -1.374988,-0.29687 -0.437496,-0.15625 -0.796868,-0.39062 -1.109365,-0.67187 -0.312497,-0.28125 -0.54687,-0.57812 -0.718744,-0.90624 -0.07812,-0.17187 -0.156248,-0.35937 -0.218748,-0.54687 0.0625,-0.0625 0.156249,-0.10938 0.281248,-0.125 l 1.765609,-0.20312 c 0.468746,-0.10938 0.718743,0 0.718743,0.34374 0,0.1875 0.09375,0.375 0.234373,0.57812 0.109374,0.125 0.234373,0.26563 0.421872,0.375 v -0.5625 -1.8281 -0.57812 c -0.796868,-0.21875 -1.374988,-0.42187 -1.718735,-0.59375 -0.390622,-0.1875 -0.734368,-0.49999 -1.031241,-0.92186 -0.234373,-0.35938 -0.374996,-0.76562 -0.421871,-1.24999 0.0625,-0.71875 0.343747,-1.31249 0.859367,-1.81249 0.531246,-0.49999 1.312489,-0.81249 2.31248,-0.90624 v -0.21875 c 0,-0.31249 0.249997,-0.56249 0.562495,-0.56249 h 0.468745 c 0.312498,0 0.562495,0.25 0.562495,0.56249 v 0.21875 c 0.906239,0.0937 1.609359,0.32812 2.109359,0.71874 0.39062,0.3125 0.68749,0.6875 0.89061,1.15624 -0.0469,0.0469 -0.12499,0.0781 -0.23437,0.10938 l -1.81248,0.28125 c -0.39062,0.0625 -0.46875,-0.20313 -0.51562,-0.29688 -0.0781,-0.14062 -0.14063,-0.24999 -0.20313,-0.32812 -0.0625,-0.0625 -0.124995,-0.14062 -0.234369,-0.20312 z m 0,3.98434 v 0.5625 1.48436 0.57812 c 0.249999,-0.0937 0.453119,-0.21875 0.578119,-0.35937 0.1875,-0.20313 0.28125,-0.4375 0.28125,-0.6875 0,-0.0937 -0.0156,-0.1875 -0.0469,-0.28124 0.0312,-0.0937 0.0469,-0.1875 0.0469,-0.28125 0,-0.23437 -0.0781,-0.4375 -0.23437,-0.60937 -0.10938,-0.15625 -0.32813,-0.28125 -0.624999,-0.40625 z m -1.593735,-4.07809 v -0.57812 c -0.156249,0.0781 -0.265623,0.15625 -0.343747,0.25 -0.109374,0.14063 -0.171874,0.3125 -0.171874,0.51562 0,0.10938 0.01563,0.20313 0.04687,0.28125 -0.03125,0.0937 -0.04687,0.1875 -0.04687,0.28125 0,0.20312 0.0625,0.39062 0.187499,0.54687 0.0625,0.0937 0.187498,0.17187 0.328122,0.24999 v -0.56249 z"
       id="path7241"
       style="clip-rule:evenodd;fill:url(#linearGradient10976);fill-rule:evenodd;stroke-width:0.01562486;image-rendering:optimizeQuality;shape-rendering:geometricPrecision;text-rendering:geometricPrecision"
       inkscape:connector-curvature="0" />
    <path
       class="fil97"
       d="m 103.35889,120.74892 c 0.0156,0.0469 0.0156,0.0937 0.0156,0.14062 -0.0312,0.40625 -0.14063,0.78124 -0.32813,1.12499 -0.21875,0.42187 -0.51562,0.78124 -0.85936,1.06249 -0.35938,0.28125 -0.73437,0.48437 -1.12499,0.60937 -0.32813,0.10937 -0.71875,0.1875 -1.171869,0.21875 v 0.56249 0.34375 c 0,0.3125 -0.249997,0.56249 -0.562495,0.56249 h -0.468745 c -0.312498,0 -0.562495,-0.24999 -0.562495,-0.56249 v -0.34375 -0.57812 c -0.562495,-0.0625 -1.015616,-0.15625 -1.374988,-0.29687 -0.437496,-0.15625 -0.796868,-0.39062 -1.109365,-0.67187 -0.312497,-0.28125 -0.54687,-0.57812 -0.718744,-0.90624 -0.04687,-0.0937 -0.07812,-0.17187 -0.109374,-0.26562 0.812493,0.0625 1.73436,0.0625 2.703101,0 0.04687,0.0937 0.109374,0.20312 0.187498,0.31249 0.109374,0.125 0.234373,0.26563 0.421872,0.375 v -0.5625 -0.17187 c 0.328122,-0.0312 0.656244,-0.0625 0.984366,-0.10937 0.203123,-0.0312 0.406246,-0.0469 0.609369,-0.0781 v 0.5 0.57812 c 0.249999,-0.0937 0.453119,-0.21875 0.578119,-0.35937 0.1875,-0.20313 0.28125,-0.4375 0.28125,-0.6875 0,-0.0625 0,-0.125 -0.0156,-0.17187 0.9375,-0.17187 1.82811,-0.39062 2.62498,-0.62499 z"
       id="path7243"
       inkscape:connector-curvature="0"
       style="clip-rule:evenodd;fill:#f7c600;fill-rule:nonzero;stroke-width:0.01562486;image-rendering:optimizeQuality;shape-rendering:geometricPrecision;text-rendering:geometricPrecision" />
    <path
       class="fil98"
       d="m 99.890171,115.98333 v 0.28125 c -0.203123,0.0312 -0.406246,0.0469 -0.609369,0.0781 -0.328122,0.0469 -0.656244,0.0937 -0.984366,0.14063 v -0.59375 -0.57812 c -0.156249,0.0781 -0.265623,0.15625 -0.343747,0.25 -0.109374,0.14063 -0.171874,0.3125 -0.171874,0.51562 0,0.10938 0.01563,0.20313 0.04687,0.28125 -0.01563,0.0781 -0.03125,0.14062 -0.04687,0.21875 -0.921867,0.15625 -1.781234,0.37499 -2.578102,0.60937 -0.03125,-0.15625 -0.0625,-0.3125 -0.07812,-0.48437 0.0625,-0.71875 0.343747,-1.31249 0.859367,-1.81249 0.531246,-0.49999 1.312489,-0.81249 2.31248,-0.90624 v -0.21875 c 0,-0.31249 0.249997,-0.56249 0.562495,-0.56249 h 0.468745 c 0.312498,0 0.562495,0.25 0.562495,0.56249 v 0.21875 c 0.906235,0.0937 1.609355,0.32812 2.109355,0.71874 0.39062,0.3125 0.68749,0.6875 0.89061,1.15624 -0.0469,0.0469 -0.12499,0.0781 -0.23437,0.10938 l -1.28124,0.20312 c -0.28124,0 -0.56249,0.0156 -0.84374,0.0469 -0.14062,-0.0781 -0.17187,-0.20313 -0.20312,-0.26563 -0.0781,-0.14062 -0.14063,-0.24999 -0.20313,-0.32812 -0.0625,-0.0625 -0.124991,-0.14062 -0.234365,-0.20312 z"
       id="path7245"
       inkscape:connector-curvature="0"
       style="clip-rule:evenodd;fill:#fff71f;fill-rule:nonzero;stroke-width:0.01562486;image-rendering:optimizeQuality;shape-rendering:geometricPrecision;text-rendering:geometricPrecision" />
    <g
       id="Layer_1"
       transform="matrix(0.26458333,0,0,0.26458333,168.27784,110.36558)">
      <g
         id="g12633" />
      <g
         id="g12671">
        <g
           style="opacity:0.2"
           id="g12637"
           class="st1">
          <path
             style="fill:#231f20"
             inkscape:connector-curvature="0"
             id="path12635"
             d="m 12,25 v 25 c 0,2.2 1.8,4 4,4 h 32 c 2.2,0 4,-1.8 4,-4 V 25 Z"
             class="st2" />
        </g>
        <g
           id="g12641">
          <path
             style="fill:#ffffff"
             inkscape:connector-curvature="0"
             id="path12639"
             d="m 12,23 v 25 c 0,2.2 1.8,4 4,4 h 32 c 2.2,0 4,-1.8 4,-4 V 23 Z"
             class="st3" />
        </g>
        <g
           style="opacity:0.2"
           id="g12645"
           class="st1">
          <path
             style="fill:#231f20"
             inkscape:connector-curvature="0"
             id="path12643"
             d="M 48,14 H 16 c -2.2,0 -4,1.8 -4,4 v 7 h 40 v -7 c 0,-2.2 -1.8,-4 -4,-4 z"
             class="st2" />
        </g>
        <g
           id="g12649">
          <path
             style="fill:#c75c5c"
             inkscape:connector-curvature="0"
             id="path12647"
             d="M 48,12 H 16 c -2.2,0 -4,1.8 -4,4 v 7 h 40 v -7 c 0,-2.2 -1.8,-4 -4,-4 z"
             class="st4" />
        </g>
        <g
           id="g12653">
          <path
             style="fill:#4f5d73"
             inkscape:connector-curvature="0"
             id="path12651"
             d="m 32,48 c -1.1,0 -2,-0.9 -2,-2 0,-5.5 1.8,-9.5 3.5,-12 H 27 c -1.1,0 -2,-0.9 -2,-2 0,-1.1 0.9,-2 2,-2 h 11 c 0.9,0 1.6,0.6 1.9,1.4 0.3,0.8 0,1.7 -0.7,2.2 C 39,33.8 34,37.5 34,46 c 0,1.1 -0.9,2 -2,2 z"
             class="st5" />
        </g>
        <g
           style="opacity:0.2"
           id="g12657"
           class="st1">
          <path
             style="fill:#231f20"
             inkscape:connector-curvature="0"
             id="path12655"
             d="m 20,21 c -1.1,0 -2,-0.9 -2,-2 v -7 c 0,-1.1 0.9,-2 2,-2 v 0 c 1.1,0 2,0.9 2,2 v 7 c 0,1.1 -0.9,2 -2,2 z"
             class="st2" />
        </g>
        <g
           style="opacity:0.2"
           id="g12661"
           class="st1">
          <path
             style="fill:#231f20"
             inkscape:connector-curvature="0"
             id="path12659"
             d="m 45,21 c -1.1,0 -2,-0.9 -2,-2 v -7 c 0,-1.1 0.9,-2 2,-2 v 0 c 1.1,0 2,0.9 2,2 v 7 c 0,1.1 -0.9,2 -2,2 z"
             class="st2" />
        </g>
        <g
           id="g12665">
          <path
             style="fill:#e0e0d1"
             inkscape:connector-curvature="0"
             id="path12663"
             d="m 20,19 c -1.1,0 -2,-0.9 -2,-2 v -7 c 0,-1.1 0.9,-2 2,-2 v 0 c 1.1,0 2,0.9 2,2 v 7 c 0,1.1 -0.9,2 -2,2 z"
             class="st6" />
        </g>
        <g
           id="g12669">
          <path
             style="fill:#e0e0d1"
             inkscape:connector-curvature="0"
             id="path12667"
             d="m 45,19 c -1.1,0 -2,-0.9 -2,-2 v -7 c 0,-1.1 0.9,-2 2,-2 v 0 c 1.1,0 2,0.9 2,2 v 7 c 0,1.1 -0.9,2 -2,2 z"
             class="st6" />
        </g>
      </g>
    </g>
    <g
       id="Layer_2"
       transform="matrix(0.26458333,0,0,0.26458333,168.27784,110.36558)" />
  </g>
  <style
     id="style12629"
     type="text/css">
	.st0{fill:#77B3D4;}
	.st1{opacity:0.2;}
	.st2{fill:#231F20;}
	.st3{fill:#FFFFFF;}
	.st4{fill:#C75C5C;}
	.st5{fill:#4F5D73;}
	.st6{fill:#E0E0D1;}
</style>
</svg>
