<?xml version="1.0" encoding="UTF-8" standalone="no"?>
<svg
   xmlns:dc="http://purl.org/dc/elements/1.1/"
   xmlns:cc="http://creativecommons.org/ns#"
   xmlns:rdf="http://www.w3.org/1999/02/22-rdf-syntax-ns#"
   xmlns:svg="http://www.w3.org/2000/svg"
   xmlns="http://www.w3.org/2000/svg"
   xmlns:sodipodi="http://sodipodi.sourceforge.net/DTD/sodipodi-0.dtd"
   xmlns:inkscape="http://www.inkscape.org/namespaces/inkscape"
   viewBox="0 0 512 512"
   version="1.1"
   id="svg4049"
   sodipodi:docname="herbs.svg"
   width="135.46666mm"
   height="135.46666mm"
   inkscape:version="0.92.4 (5da689c313, 2019-01-14)">
  <metadata
     id="metadata4055">
    <rdf:RDF>
      <cc:Work
         rdf:about="">
        <dc:format>image/svg+xml</dc:format>
        <dc:type
           rdf:resource="http://purl.org/dc/dcmitype/StillImage" />
        <dc:title></dc:title>
      </cc:Work>
    </rdf:RDF>
  </metadata>
  <defs
     id="defs4053" />
  <sodipodi:namedview
     pagecolor="#ffffff"
     bordercolor="#666666"
     borderopacity="1"
     objecttolerance="10"
     gridtolerance="10"
     guidetolerance="10"
     inkscape:pageopacity="0"
     inkscape:pageshadow="2"
     inkscape:window-width="1920"
     inkscape:window-height="1017"
     id="namedview4051"
     showgrid="false"
     units="mm"
     inkscape:zoom="0.4609375"
     inkscape:cx="256"
     inkscape:cy="256"
     inkscape:window-x="-8"
     inkscape:window-y="-8"
     inkscape:window-maximized="1"
     inkscape:current-layer="svg4049" />
  <path
     d="M 11,11 H 501 V 501 H 11 Z"
     id="path4043"
     inkscape:connector-curvature="0"
     style="fill:#ffffff;fill-opacity:1;stroke:#000000;stroke-width:11;stroke-opacity:1" />
  <g
     class=""
     id="g4047">
    <path
       d="m 478,23.74 c -11.3,0.28 -23.5,1.47 -34.9,3.67 -16,3.08 -30.4,8.33 -37.9,13.88 -0.7,2.21 -0.9,5.24 -0.8,7.29 0,2.1 0.3,4.38 0.7,6.68 13.3,-9.91 29.6,-15.59 46.1,-20.96 -14.3,10.07 -26.6,20.65 -38.2,31.49 8.1,3.57 17.7,3.62 23.9,-0.77 h 0.1 c 13.4,-9.64 31.3,-25.76 41,-41.25 z m -297.9,3.59 c -2.7,0 -5.6,0.3 -8.6,0.97 -2,9.79 -0.8,18.7 2.9,25.79 -9,-3.54 -19.8,-2.95 -30.8,6.26 6.7,22.83 26.9,33 47.7,22.69 0.6,9.44 0.9,18.96 0.9,28.46 -6.5,-7.1 -17.2,-13.55 -28.3,-13.25 -7.8,0.3 -15.9,3.85 -23,12.85 11.2,21 33,26.8 51.2,12.6 -0.2,10.3 -0.7,20.6 -1.5,31 -6.1,-8.4 -17,-16.4 -29.1,-16.3 -5.4,0.1 -11,1.8 -16.6,5.8 16,4.5 30.6,10.9 43.7,19.5 4.9,3.1 7.4,7.9 8.8,12.6 1.3,4.7 1.6,9.6 1.5,14.6 -0.4,10.2 -2.8,20.9 -6.4,30 l -1.3,3 -2.9,1.5 c -2,1.1 -4.3,2.2 -6.5,3.3 -2.1,12.8 -4.4,25.7 -6.9,38.7 -14.8,-18 -29.7,-24.6 -44.4,-24.7 -37.59,-0.4 -74.36,41.2 -108.68,41.9 46.47,3.3 118.78,-44.1 143.98,11.6 18.7,13.9 37.9,25.2 57.5,33.8 1.6,-9.4 4.2,-19.3 7.8,-28.1 2.3,-5.6 4.9,-10.8 8.2,-15.2 3.3,-4.4 7.3,-8.4 13.4,-9.9 1.7,-0.5 3.5,-0.9 5.2,-1.3 -5.4,-10.5 -4.7,-24.6 1.7,-36.4 6.5,-12.1 18.3,-20.5 30.4,-21.4 12.4,-18.9 25.4,-37.3 39.1,-55.4 10.6,22.5 34,26.6 53.3,10.9 -4.9,-18.1 -18,-23.8 -30.5,-23.5 -5.6,0.1 -11.1,1.5 -15.8,3.5 19.7,-25.5 40.8,-50 63.4,-73.76 -8.2,-3.62 -8.8,-6.35 -10.9,-14.61 -23,23.99 -44.5,48.97 -64.6,74.67 -0.5,15.9 -9.5,30.2 -24.7,33.2 h -0.2 C 289.4,186.3 280,200 271,214 c 2.3,-14.9 4.6,-30.2 7.4,-45.4 -7,-4.4 -12.6,-11.8 -15.7,-20.4 -9.5,30.5 -16.3,62.9 -25.1,90.9 -1.2,-0.2 -2.5,-0.3 -3.7,-0.3 -15.8,-0.1 -29.7,13.6 -33.3,23.9 12.1,10.4 25.4,12.4 36.3,7.6 -4.1,7.3 -8.3,14.7 -12.3,22.1 -3.6,-1.6 -7.3,-2.4 -10.8,-2.4 -11.4,-0.1 -21.8,7.1 -28.1,14.9 6.9,-32.8 13.1,-65.6 17.6,-98.3 18.4,9.3 37.5,1.1 46,-19.6 -7.2,-7.5 -14.8,-10.5 -22,-10.6 -7.9,-0.1 -15.4,3.4 -21.3,8.1 1.3,-11.3 2.3,-22.6 3,-33.9 18.8,18.5 43.1,13.5 55.1,-9.1 -7.1,-9 -15.2,-12.5 -23,-12.8 -13.6,-0.4 -26.4,9.3 -31.9,18.1 0.6,-10.7 1,-21.3 1,-31.9 20.5,9.6 40.2,-0.6 46.8,-23.2 -7.2,-6.03 -14.3,-8.36 -20.8,-8.26 -10.8,0.16 -20.2,6.95 -26.2,14.71 -0.2,-7.05 -0.6,-14.1 -1.1,-21.13 23.4,7.71 42.3,-6.26 44.5,-30.81 -19.8,-10.93 -35,-0.74 -42.9,11.84 -1.8,-14.09 -11,-30.7 -30.4,-30.72 z m 178,13.92 c -36.8,5.82 -59.7,28.28 -75.7,58 l 2.4,-0.6 c 5.3,-1 10.4,-0.5 15,1.2 C 312,76.04 330,55.46 358.1,41.25 Z M 490.2,105 c -47.4,67.9 -110.8,96.8 -173.1,128.2 5.3,10.5 4.6,24.3 -1.7,36 v 0.1 C 381.2,228.5 448.2,189.8 490.2,105 Z m -89.7,4.4 c -15.8,-0.2 -29.7,13.7 -33.3,23.9 20.9,18 45.3,10.9 55.3,-13.3 -7.2,-7.5 -14.8,-10.5 -22,-10.6 z m -111,6.8 c -0.4,0.1 -0.8,0.1 -1.2,0.2 -6.3,1.2 -12,10.1 -9.7,21.9 2.3,11.8 11,18 17.2,16.7 6.3,-1.2 12,-10.1 9.7,-21.9 -2.2,-11.1 -9.8,-17.2 -16,-16.9 z M 84.98,154.4 c -1.49,0 -3.08,0.1 -4.59,0.1 9.39,25.3 19.49,46.9 40.81,59.9 h 0.1 c 14.2,9 31.2,6.5 45.9,0.9 l -42.4,-35.1 52.9,28 c 1.5,-8.9 6.7,-20.8 1.3,-29.3 h -0.1 v -0.1 C 154.4,162.9 123.6,154.7 84.98,154.4 Z m 206.92,81.3 c -5.5,0.2 -12.2,4 -16.5,11.9 -5.7,10.6 -2.9,20.9 2.7,23.9 8.6,3.7 18.2,-5 21.4,-10.8 5.7,-10.6 2.9,-20.8 -2.7,-23.9 -1.4,-0.8 -3.1,-1.1 -4.9,-1.1 z m -3.1,54.3 c -1.5,0 -3.1,0 -4.6,0.1 -9.2,0.4 -18.2,1.8 -27,4.1 h -0.1 c 0.1,0 -1.5,0.7 -3.4,3.3 -1.9,2.6 -4.1,6.5 -5.9,11.2 -2.7,6.5 -4.8,14.3 -6.2,21.6 l 64,-10.1 -51.9,20.6 c 5.4,8 6.9,11.3 8.2,17.2 8.3,5.3 17.1,7.7 28.2,5 27.6,-6.5 49.3,-29 72,-55.5 -26,-11.9 -50.2,-17.7 -73.3,-17.5 z m -137.2,17.9 -9,22.9 c 32.7,14.4 60.6,31.1 87.3,47.9 l 12.5,-22.6 c -31.9,-9.8 -62,-26.3 -90.8,-48.2 z m -12.6,41 c -20.9,27.3 -46.01,51 -74.71,64.9 l 7.88,16.2 c 33.33,-16.2 60.93,-43.1 83.53,-73.2 -5.4,-2.7 -11,-5.4 -16.7,-7.9 z m 20.3,9.7 C 135.7,400.7 113,430.7 88.95,474.7 l 15.85,8.6 c 23.4,-42.9 46,-73 70.5,-116.3 -5.2,-2.8 -10.6,-5.6 -16,-8.4 z m 26.2,14.2 c -24.6,37.7 -42.2,68.5 -59.6,108.3 l 16.4,7.2 c 17.1,-39 34.2,-68.8 58.6,-106.4 -5.1,-3.1 -10.2,-6.2 -15.4,-9.1 z m 23,13.7 c -15.4,26 -17.1,57 -19.8,80.6 l 17.8,2.1 c 2.9,-24.2 5.1,-52.2 17.3,-73.1 z"
       id="path4045"
       inkscape:connector-curvature="0"
       style="fill:#000000;fill-opacity:1" />
  </g>
</svg>
