<?xml version="1.0" encoding="UTF-8" standalone="no"?>
<svg
   xmlns:dc="http://purl.org/dc/elements/1.1/"
   xmlns:cc="http://creativecommons.org/ns#"
   xmlns:rdf="http://www.w3.org/1999/02/22-rdf-syntax-ns#"
   xmlns:svg="http://www.w3.org/2000/svg"
   xmlns="http://www.w3.org/2000/svg"
   xmlns:sodipodi="http://sodipodi.sourceforge.net/DTD/sodipodi-0.dtd"
   xmlns:inkscape="http://www.inkscape.org/namespaces/inkscape"
   viewBox="0 0 512 512"
   version="1.1"
   id="svg4245"
   sodipodi:docname="hospital.svg"
   width="135.46666mm"
   height="135.46666mm"
   inkscape:version="0.92.4 (5da689c313, 2019-01-14)">
  <metadata
     id="metadata4251">
    <rdf:RDF>
      <cc:Work
         rdf:about="">
        <dc:format>image/svg+xml</dc:format>
        <dc:type
           rdf:resource="http://purl.org/dc/dcmitype/StillImage" />
        <dc:title></dc:title>
      </cc:Work>
    </rdf:RDF>
  </metadata>
  <defs
     id="defs4249" />
  <sodipodi:namedview
     pagecolor="#ffffff"
     bordercolor="#666666"
     borderopacity="1"
     objecttolerance="10"
     gridtolerance="10"
     guidetolerance="10"
     inkscape:pageopacity="0"
     inkscape:pageshadow="2"
     inkscape:window-width="640"
     inkscape:window-height="480"
     id="namedview4247"
     showgrid="false"
     units="mm"
     inkscape:zoom="0.4609375"
     inkscape:cx="256"
     inkscape:cy="256"
     inkscape:window-x="0"
     inkscape:window-y="0"
     inkscape:window-maximized="0"
     inkscape:current-layer="svg4245" />
  <path
     d="M 11,11 H 501 V 501 H 11 Z"
     id="path4239"
     inkscape:connector-curvature="0"
     style="fill:#ffffff;fill-opacity:1;stroke:#000000;stroke-width:11;stroke-opacity:1" />
  <g
     class=""
     id="g4243">
    <path
       d="m 256,25 c 39.3,0 71,31.68 71,71 0,39.3 -31.7,71 -71,71 -39.3,0 -71,-31.7 -71,-71 0,-39.32 31.7,-71 71,-71 z m 18,23 h -36 v 30 h -30 v 36 h 30 v 30 h 36 v -30 h 30 V 78 h -30 z m 101,89 v 350 h -78 v -80 h -82 v 80 H 137 V 137 h 40.1 c 2.5,5 5.6,9.6 9,14 H 151 v 50 h 50 v -35.1 c 8.8,6.9 19,12.3 30,15.5 V 201 h 50 v -19.6 c 11,-3.2 21.2,-8.6 30,-15.5 V 201 h 50 v -50 h -35.1 c 3.4,-4.4 6.5,-9 9,-14 z m -32,32 v 14 h -14 v -14 z m -160,0 v 14 h -14 v -14 z m 288,32 V 487 H 393 V 201 Z m -352,0 V 487 H 41 V 201 Z m 338,14 h -50 v 82 h 50 v -73 z m -96,0 h -50 v 82 h 50 v -73 z m -80,0 h -50 v 82 h 50 v -73 z m -80,0 h -50 v 82 h 50 v -73 z m -96,0 H 55 v 82 h 50 v -73 z m 334,18 v 46 h -14 v -46 z m -96,0 v 46 h -14 v -46 z m -80,0 v 46 h -14 v -46 z m -80,0 v 46 h -14 v -46 z m -96,0 v 46 H 73 v -46 z m 370,78 h -50 v 82 h 50 v -73 z m -96,0 h -50 v 82 h 50 v -73 z m -80,0 h -50 v 82 h 50 v -73 z m -80,0 h -50 v 82 h 50 v -73 z m -96,0 H 55 v 82 h 50 v -73 z m 334,18 v 46 h -14 v -46 z m -96,0 v 46 h -14 v -46 z m -80,0 v 46 h -14 v -46 z m -80,0 v 46 h -14 v -46 z m -96,0 v 46 H 73 v -46 z m 370,78 h -50 v 50 h 50 v -41 z m -96,0 h -50 v 50 h 50 v -41 z m -160,0 h -50 v 50 h 50 v -41 z m -96,0 H 55 v 50 h 50 v -41 z m 334,18 v 14 h -14 v -14 z m -96,0 v 14 h -14 v -14 z m -64,0 v 62 h -46 v -62 z m -96,0 v 14 h -14 v -14 z m -96,0 v 14 H 73 v -14 z"
       id="path4241"
       inkscape:connector-curvature="0"
       style="fill:#000000;fill-opacity:1" />
  </g>
</svg>
