<?xml version="1.0" encoding="UTF-8" standalone="no"?>
<!-- Created with Inkscape (http://www.inkscape.org/) -->

<svg
   xmlns:dc="http://purl.org/dc/elements/1.1/"
   xmlns:cc="http://creativecommons.org/ns#"
   xmlns:rdf="http://www.w3.org/1999/02/22-rdf-syntax-ns#"
   xmlns:svg="http://www.w3.org/2000/svg"
   xmlns="http://www.w3.org/2000/svg"
   xmlns:sodipodi="http://sodipodi.sourceforge.net/DTD/sodipodi-0.dtd"
   xmlns:inkscape="http://www.inkscape.org/namespaces/inkscape"
   width="40.269638mm"
   height="9.2599163mm"
   viewBox="0 0 40.269638 9.2599163"
   version="1.1"
   id="svg5201"
   inkscape:version="0.92.4 (5da689c313, 2019-01-14)"
   sodipodi:docname="lifebar-empty.svg">
  <defs
     id="defs5195" />
  <sodipodi:namedview
     id="base"
     pagecolor="#ffffff"
     bordercolor="#666666"
     borderopacity="1.0"
     inkscape:pageopacity="0.0"
     inkscape:pageshadow="2"
     inkscape:zoom="3.959798"
     inkscape:cx="69.600469"
     inkscape:cy="-17.293926"
     inkscape:document-units="mm"
     inkscape:current-layer="layer1"
     showgrid="false"
     fit-margin-top="0"
     fit-margin-left="0"
     fit-margin-right="0"
     fit-margin-bottom="0"
     inkscape:window-width="1878"
     inkscape:window-height="1016"
     inkscape:window-x="42"
     inkscape:window-y="27"
     inkscape:window-maximized="1" />
  <metadata
     id="metadata5198">
    <rdf:RDF>
      <cc:Work
         rdf:about="">
        <dc:format>image/svg+xml</dc:format>
        <dc:type
           rdf:resource="http://purl.org/dc/dcmitype/StillImage" />
        <dc:title></dc:title>
      </cc:Work>
    </rdf:RDF>
  </metadata>
  <g
     inkscape:label="Layer 1"
     inkscape:groupmode="layer"
     id="layer1"
     transform="translate(178.12887,-51.221231)">
    <g
       transform="matrix(0.00243904,0,0,0.00999991,-231.59363,-322.18541)"
       style="clip-rule:evenodd;fill-rule:evenodd;image-rendering:optimizeQuality;shape-rendering:geometricPrecision;text-rendering:geometricPrecision"
       id="g3965-36-9">
      <path
         style="fill:#000000;fill-opacity:0.10196102"
         inkscape:connector-curvature="0"
         id="path3967-0-2"
         d="m 25974,37639 h 2740 c 37,0 67,31 67,68 v 198 c 0,37 -30,67 -67,67 h -2740 c -38,0 -68,-30 -68,-67 v -198 c 0,-37 30,-68 68,-68 z"
         class="fil1" />
      <path
         style="fill:#be005b"
         inkscape:connector-curvature="0"
         id="path3969-6-0"
         d="m 25974,37623 h 2740 c 37,0 67,31 67,68 v 197 c 0,38 -30,68 -67,68 h -2740 c -38,0 -68,-30 -68,-68 v -197 c 0,-37 30,-68 68,-68 z"
         class="fil89" />
      <path
         style="fill:#ff3d9a"
         inkscape:connector-curvature="0"
         id="path3971-26-2"
         d="m 25974,37585 h 2740 c 37,0 67,30 67,68 v 197 c 0,37 -30,68 -67,68 h -2740 c -38,0 -68,-31 -68,-68 v -197 c 0,-38 30,-68 68,-68 z"
         class="fil93" />
      <path
         style="fill:#ff5ba7"
         inkscape:connector-curvature="0"
         id="path3973-1-3"
         d="m 25974,37585 h 2740 c 37,0 67,30 67,68 v 98 h -2875 v -98 c 0,-38 30,-68 68,-68 z"
         class="fil119" />
      <path
         style="fill:#ff5ba7"
         inkscape:connector-curvature="0"
         id="path3975-8-7"
         d="m 28781,37838 v 12 c 0,37 -30,68 -67,68 h -2740 c -38,0 -68,-31 -68,-68 v -12 c 0,38 30,68 68,68 h 2740 c 37,0 67,-30 67,-68 z"
         class="fil119" />
      <path
         style="fill:#ff9bc9"
         inkscape:connector-curvature="0"
         id="path3977-7-5"
         d="m 28781,37664 v -11 c 0,-38 -30,-68 -67,-68 h -2740 c -38,0 -68,30 -68,68 v 11 c 0,-37 30,-67 68,-67 h 2740 c 37,0 67,30 67,67 z"
         class="fil0" />
    </g>
  </g>
</svg>
