<?xml version="1.0" encoding="UTF-8" standalone="no"?>
<svg
   xmlns:dc="http://purl.org/dc/elements/1.1/"
   xmlns:cc="http://creativecommons.org/ns#"
   xmlns:rdf="http://www.w3.org/1999/02/22-rdf-syntax-ns#"
   xmlns:svg="http://www.w3.org/2000/svg"
   xmlns="http://www.w3.org/2000/svg"
   xmlns:sodipodi="http://sodipodi.sourceforge.net/DTD/sodipodi-0.dtd"
   xmlns:inkscape="http://www.inkscape.org/namespaces/inkscape"
   viewBox="0 0 512 512"
   version="1.1"
   id="svg3761"
   sodipodi:docname="stethoscope_Cadre.svg"
   inkscape:version="0.92.4 (5da689c313, 2019-01-14)"
   width="135.46666mm"
   height="135.46666mm">
  <metadata
     id="metadata3767">
    <rdf:RDF>
      <cc:Work
         rdf:about="">
        <dc:format>image/svg+xml</dc:format>
        <dc:type
           rdf:resource="http://purl.org/dc/dcmitype/StillImage" />
        <dc:title></dc:title>
      </cc:Work>
    </rdf:RDF>
  </metadata>
  <defs
     id="defs3765" />
  <sodipodi:namedview
     pagecolor="#ffffff"
     bordercolor="#666666"
     borderopacity="1"
     objecttolerance="10"
     gridtolerance="10"
     guidetolerance="10"
     inkscape:pageopacity="0"
     inkscape:pageshadow="2"
     inkscape:window-width="1920"
     inkscape:window-height="1017"
     id="namedview3763"
     showgrid="false"
     inkscape:zoom="1.3037281"
     inkscape:cx="406.6182"
     inkscape:cy="119.58058"
     inkscape:window-x="-8"
     inkscape:window-y="-8"
     inkscape:window-maximized="1"
     inkscape:current-layer="svg3761"
     units="mm"
     inkscape:document-units="mm" />
  <path
     d="m 133.5,133.5 h 245 v 245 h -245 z"
     id="path3755"
     inkscape:connector-curvature="0"
     style="fill:#ffffff;fill-opacity:1;stroke:#000000;stroke-width:5.5;stroke-opacity:1" />
  <g
     class=""
     transform="matrix(0.5,0,0,0.5,128,128)"
     id="g3759">
    <path
       d="m 110.037,23.27 c -1.32,0.075 -2.665,0.417 -4.014,1.073 L 79,41.943 89.5,63.523 120.025,53.118 c 13.04,-6.344 2.762,-30.57 -9.988,-29.847 z m 110.926,0 c -12.75,-0.723 -23.027,23.504 -9.988,29.848 L 241.5,63.523 252,41.943 224.977,24.343 c -1.35,-0.656 -2.695,-0.998 -4.014,-1.072 z M 65.475,51.473 28.5,69.96 v 5.563 c 0,42.4 16.395,98.962 41.02,146.164 12.315,23.6 26.693,44.793 42.67,60.504 13.498,13.274 28.41,22.913 44.398,25.585 1.247,64.995 17.26,110.633 42.027,140.044 25.804,30.642 61.022,42.836 95.446,40.685 53.712,-3.357 106.658,-40.218 127.342,-92.984 a 79.726,79.726 0 0 1 -18.777,-2.27 c -19.496,43.688 -64.946,74.494 -109.686,77.29 -29.577,1.85 -58.36,-7.957 -80.555,-34.314 -21.268,-25.256 -36.55,-66.5 -37.793,-128.483 15.92,-2.713 30.77,-12.33 44.22,-25.552 15.975,-15.71 30.353,-36.903 42.667,-60.503 24.625,-47.202 41.02,-103.764 41.02,-146.164 V 69.96 l -36.975,-18.488 -8.05,16.1 26.763,13.384 c -1.344,37.38 -16.41,89.65 -38.717,132.403 -11.685,22.398 -25.307,42.205 -39.33,55.995 -14.024,13.79 -28.065,21.168 -40.69,21.168 -12.625,0 -26.666,-7.378 -40.69,-21.168 C 110.787,255.564 97.165,235.757 85.48,213.357 63.172,170.604 48.106,118.337 46.762,80.955 l 26.763,-13.383 -8.05,-16.1 z M 421.5,253.522 c -34.348,0 -62,27.652 -62,62 0,34.35 27.652,62 62,62 34.348,0 62,-27.65 62,-62 0,-34.348 -27.652,-62 -62,-62 z m 0,30 c 17.567,0 32,14.434 32,32 0,17.567 -14.433,32 -32,32 -17.567,0 -32,-14.433 -32,-32 0,-17.566 14.433,-32 32,-32 z m 0,18 c -7.84,0 -14,6.162 -14,14 0,7.84 6.16,14 14,14 7.84,0 14,-6.16 14,-14 0,-7.838 -6.16,-14 -14,-14 z"
       id="path3757"
       inkscape:connector-curvature="0"
       style="fill:#000000;fill-opacity:1" />
  </g>
</svg>
