<?xml version="1.0" encoding="UTF-8" standalone="no"?>
<svg
   xmlns:dc="http://purl.org/dc/elements/1.1/"
   xmlns:cc="http://creativecommons.org/ns#"
   xmlns:rdf="http://www.w3.org/1999/02/22-rdf-syntax-ns#"
   xmlns:svg="http://www.w3.org/2000/svg"
   xmlns="http://www.w3.org/2000/svg"
   xmlns:sodipodi="http://sodipodi.sourceforge.net/DTD/sodipodi-0.dtd"
   xmlns:inkscape="http://www.inkscape.org/namespaces/inkscape"
   viewBox="0 0 512 512"
   version="1.1"
   id="svg4021"
   sodipodi:docname="walk.svg"
   width="135.46666mm"
   height="135.46666mm"
   inkscape:version="0.92.4 (5da689c313, 2019-01-14)">
  <metadata
     id="metadata4027">
    <rdf:RDF>
      <cc:Work
         rdf:about="">
        <dc:format>image/svg+xml</dc:format>
        <dc:type
           rdf:resource="http://purl.org/dc/dcmitype/StillImage" />
        <dc:title></dc:title>
      </cc:Work>
    </rdf:RDF>
  </metadata>
  <defs
     id="defs4025" />
  <sodipodi:namedview
     pagecolor="#ffffff"
     bordercolor="#666666"
     borderopacity="1"
     objecttolerance="10"
     gridtolerance="10"
     guidetolerance="10"
     inkscape:pageopacity="0"
     inkscape:pageshadow="2"
     inkscape:window-width="1920"
     inkscape:window-height="1017"
     id="namedview4023"
     showgrid="false"
     units="mm"
     inkscape:zoom="0.4609375"
     inkscape:cx="256"
     inkscape:cy="256"
     inkscape:window-x="-8"
     inkscape:window-y="-8"
     inkscape:window-maximized="1"
     inkscape:current-layer="svg4021" />
  <path
     d="M 11,11 H 501 V 501 H 11 Z"
     id="path4015"
     inkscape:connector-curvature="0"
     style="fill:#ffffff;fill-opacity:1;stroke:#000000;stroke-width:11;stroke-opacity:1" />
  <g
     class=""
     id="g4019">
    <path
       d="m 271.9,25.85 c -18.4,0 -36,16.73 -39.2,40.97 -3.4,25.83 11.3,47.48 30.9,49.88 19.7,2.4 39.5,-14.9 43,-40.77 3.5,-25.86 -11.5,-47.43 -31,-49.85 -1.2,-0.15 -2.5,-0.23 -3.7,-0.23 z m -38.2,95.75 c -38,6.3 -75.2,41.9 -94,66 -11.5,33.4 -14.5,66.7 -20.7,100 l 28.2,-0.8 c 6.6,-25.2 8.2,-51.9 21,-75.4 14.8,-8.2 26.9,-20.6 38.4,-33.8 -6.4,32.9 -14,72.3 -13.2,101.8 29.8,70.9 95.7,140.4 133,206.4 l 29.9,-24.3 C 327.5,405.8 298.8,355.1 262,301.3 c 2.1,-7.1 43.3,-163.5 28,-171.9 -20.2,9 -40.9,6 -56.3,-7.8 z m 71.9,58.6 c -3.1,17.8 -5.3,35.1 -10,52.8 4.5,5.4 7.5,10.5 14.3,15.3 26,15.3 52,26.3 78,36.7 l 9.2,-29.9 -77.5,-37.6 c -4.3,-12.5 -7.9,-25.2 -14,-37.3 z M 187.1,310.1 c -5.1,25 -9.8,50.2 -11.6,76.5 -15.9,31.7 -35.7,51.6 -60.5,76.4 l 30,23.2 c 23.1,-25 49.9,-47 66.7,-73.8 l 14,-42.6 C 210,350.8 197.3,331 187.1,310.1 Z"
       id="path4017"
       inkscape:connector-curvature="0"
       style="fill:#000000;fill-opacity:1" />
  </g>
</svg>
